<?xml version="1.0" encoding="utf-8"?><svg viewBox="0 0 143 30" xmlns="http://www.w3.org/2000/svg" xmlns:xlink="http://www.w3.org/1999/xlink"><style>:root>svg{display:none}:root>svg:target{display:block}</style><svg fill="none" viewBox="0 0 41 28" id="bag" xmlns="http://www.w3.org/2000/svg"><g clip-path="url(#aa)"><path d="M39.816 19.85H19.902l1-2.114 16.613-.03c.562 0 1.044-.417 1.144-.994l2.3-13.366a1.24 1.24 0 0 0-.25-.986 1.177 1.177 0 0 0-.399-.318 1.135 1.135 0 0 0-.49-.116l-21.135-.073-.18-.881C18.39.41 17.901 0 17.346 0H12.18c-.313 0-.613.13-.834.359a1.25 1.25 0 0 0-.346.866c0 .325.124.637.346.867.221.23.521.358.835.358h4.21l.789 3.895 1.943 9.764-2.502 4.238a1.252 1.252 0 0 0-.1 1.277c.2.413.605.673 1.053.673h2.1a3.645 3.645 0 0 0-.688 2.142c0 1.964 1.538 3.561 3.43 3.561 1.894 0 3.432-1.597 3.432-3.561 0-.774-.248-1.527-.689-2.142h5.387a3.645 3.645 0 0 0-.689 2.142c0 1.964 1.539 3.561 3.431 3.561 1.893 0 3.431-1.597 3.431-3.561 0-.774-.247-1.527-.688-2.142h3.788c.65 0 1.181-.548 1.181-1.225a1.253 1.253 0 0 0-.35-.864 1.163 1.163 0 0 0-.834-.358ZM19.176 4.27l19.256.065-1.886 10.961-15.126.028L19.176 4.27Zm3.24 21.266c-.581 0-1.056-.493-1.056-1.097s.475-1.097 1.057-1.097 1.056.493 1.056 1.097c0 .29-.11.57-.309.775a1.037 1.037 0 0 1-.747.322Zm10.872 0c-.581 0-1.056-.493-1.056-1.097s.475-1.097 1.056-1.097c.582 0 1.057.493 1.057 1.097 0 .29-.111.57-.31.775a1.038 1.038 0 0 1-.746.322Z" fill="currentColor"/><ellipse cx="7" cy="12.5" rx="7" ry="7.5" fill="#FF862F"/></g><defs><clipPath id="aa"><path fill="#fff" d="M0 0h41v28H0z"/></clipPath></defs></svg><svg fill="none" viewBox="0 0 143 22" id="call" xmlns="http://www.w3.org/2000/svg"><path d="M26.464 10.593h2.816v.943h-2.816v2.912h-.95v-2.912H22.71v-.943h2.803V7.667h.95v2.926ZM31.96 16l4.142-8.948h-5.448V6.006h6.652v.909L33.218 16H31.96Zm10.26-3.835c0-1.208.176-2.338.527-3.39a8.478 8.478 0 0 1 1.531-2.77h1.108a9.7 9.7 0 0 0-1.484 2.9 10.85 10.85 0 0 0-.492 3.246c0 1.094.169 2.163.506 3.206a9.954 9.954 0 0 0 1.456 2.858h-1.094a8.055 8.055 0 0 1-1.53-2.714 10.319 10.319 0 0 1-.527-3.336Zm11.307 1.538h-1.483V16h-1.087v-2.297h-4.86v-.991l4.744-6.76h1.203v6.719h1.483v1.032Zm-2.57-1.032V9.349c0-.652.023-1.388.068-2.208h-.054c-.219.437-.424.8-.615 1.087L47.23 12.67h3.726Zm10.11-2.4c0 3.91-1.513 5.866-4.539 5.866-.528 0-.948-.046-1.258-.137v-.977c.365.118.78.177 1.245.177 1.093 0 1.918-.337 2.474-1.011.56-.68.866-1.719.916-3.118h-.082c-.25.379-.583.668-.998.869a3.241 3.241 0 0 1-1.401.293c-.884 0-1.586-.264-2.106-.793-.52-.528-.779-1.266-.779-2.214 0-1.04.29-1.86.868-2.461.584-.602 1.35-.903 2.297-.903.68 0 1.272.176 1.777.527.51.346.903.854 1.176 1.524.274.665.41 1.452.41 2.358Zm-3.363-3.438c-.652 0-1.155.21-1.51.629-.356.42-.534 1.003-.534 1.75 0 .656.164 1.173.492 1.552.328.373.828.56 1.497.56.415 0 .796-.084 1.142-.253.35-.168.627-.399.827-.69.2-.292.3-.597.3-.916 0-.479-.093-.92-.28-1.326a2.302 2.302 0 0 0-.785-.957 1.955 1.955 0 0 0-1.149-.349Zm7.93 3.063c1.052 0 1.88.262 2.481.786.606.52.91 1.232.91 2.14 0 1.034-.331 1.845-.992 2.433-.656.588-1.563.882-2.72.882-1.126 0-1.985-.18-2.578-.54v-1.094c.32.205.716.367 1.19.485.474.114.94.171 1.401.171.802 0 1.424-.189 1.866-.567.447-.379.67-.925.67-1.64 0-1.395-.854-2.093-2.563-2.093-.433 0-1.012.066-1.737.199l-.587-.376.376-4.676h4.97v1.046h-4l-.253 3a7.967 7.967 0 0 1 1.566-.156Zm7.786 2.269c0 1.199-.178 2.315-.533 3.35a7.965 7.965 0 0 1-1.525 2.7H70.27a9.856 9.856 0 0 0 1.456-2.85 10.43 10.43 0 0 0 .506-3.214c0-1.112-.167-2.194-.5-3.247a9.577 9.577 0 0 0-1.476-2.898h1.107a8.382 8.382 0 0 1 1.532 2.782c.35 1.053.526 2.178.526 3.377Zm8.19-6.303c.91 0 1.633.212 2.166.636.534.424.8 1.01.8 1.757 0 .492-.152.941-.458 1.347-.305.405-.793.774-1.463 1.107.811.387 1.388.795 1.73 1.224.342.423.512.916.512 1.476 0 .83-.289 1.493-.868 1.99-.578.492-1.371.738-2.379.738-1.066 0-1.886-.233-2.46-.697-.575-.47-.862-1.133-.862-1.99 0-1.144.697-2.035 2.092-2.673-.629-.355-1.08-.738-1.354-1.148a2.467 2.467 0 0 1-.41-1.388c0-.724.267-1.3.8-1.73.538-.432 1.256-.649 2.153-.649Zm-2.16 7.615c0 .547.188.973.567 1.279.382.305.918.458 1.606.458.68 0 1.208-.16 1.586-.479.378-.319.567-.756.567-1.312 0-.442-.177-.834-.533-1.176-.355-.346-.975-.681-1.86-1.005-.678.292-1.17.615-1.476.97-.305.352-.458.773-.458 1.265Zm2.146-6.692c-.57 0-1.017.137-1.34.41-.324.274-.486.638-.486 1.094 0 .42.135.78.404 1.08.269.3.765.602 1.49.902.652-.273 1.112-.567 1.38-.881.274-.315.411-.682.411-1.1 0-.461-.166-.826-.499-1.095-.328-.273-.782-.41-1.36-.41Zm8.025-.923c.912 0 1.634.212 2.167.636.533.424.8 1.01.8 1.757 0 .492-.153.941-.458 1.347-.305.405-.793.774-1.463 1.107.811.387 1.388.795 1.73 1.224.341.423.512.916.512 1.476 0 .83-.29 1.493-.868 1.99-.579.492-1.372.738-2.379.738-1.066 0-1.887-.233-2.46-.697-.575-.47-.862-1.133-.862-1.99 0-1.144.697-2.035 2.092-2.673-.63-.355-1.08-.738-1.354-1.148a2.467 2.467 0 0 1-.41-1.388c0-.724.267-1.3.8-1.73.537-.432 1.255-.649 2.153-.649Zm-2.16 7.615c0 .547.19.973.567 1.279.383.305.919.458 1.607.458.679 0 1.207-.16 1.586-.479.378-.319.567-.756.567-1.312 0-.442-.178-.834-.533-1.176-.356-.346-.975-.681-1.86-1.005-.678.292-1.17.615-1.476.97-.305.352-.458.773-.458 1.265Zm2.146-6.692c-.57 0-1.016.137-1.34.41-.323.274-.485.638-.485 1.094 0 .42.135.78.404 1.08.268.3.765.602 1.49.902.651-.273 1.112-.567 1.38-.881.274-.315.41-.682.41-1.1 0-.461-.165-.826-.498-1.095-.328-.273-.782-.41-1.36-.41Zm7.841 3.11c1.053 0 1.88.263 2.482.787.606.52.909 1.232.909 2.14 0 1.034-.331 1.845-.991 2.433-.657.588-1.564.882-2.721.882-1.126 0-1.985-.18-2.577-.54v-1.094c.319.205.715.367 1.19.485.473.114.94.171 1.4.171.803 0 1.425-.189 1.867-.567.447-.379.67-.925.67-1.64 0-1.395-.855-2.093-2.564-2.093-.433 0-1.011.066-1.736.199l-.588-.376.376-4.676h4.97v1.046h-4l-.252 3a7.968 7.968 0 0 1 1.565-.156Zm4.779 2.872v-1.04h3.356v1.04h-3.356Zm11.662.936h-1.484V16h-1.087v-2.297h-4.86v-.991l4.744-6.76h1.203v6.719h1.484v1.032Zm-2.571-1.032V9.349c0-.652.023-1.388.069-2.208h-.055c-.219.437-.424.8-.615 1.087l-3.124 4.443h3.725Zm6.665-2.775c1.053 0 1.88.262 2.482.786.606.52.909 1.232.909 2.14 0 1.034-.33 1.845-.991 2.433-.656.588-1.563.882-2.721.882-1.126 0-1.985-.18-2.577-.54v-1.094c.319.205.715.367 1.189.485.474.114.941.171 1.402.171.802 0 1.424-.189 1.866-.567.447-.379.67-.925.67-1.64 0-1.395-.855-2.093-2.564-2.093-.433 0-1.011.066-1.736.199l-.588-.376.376-4.676h4.97v1.046h-3.999l-.253 3a7.967 7.967 0 0 1 1.565-.156Zm4.779 2.87v-1.039h3.356v1.04h-3.356Zm11.662.937h-1.484V16h-1.086v-2.297h-4.861v-.991l4.744-6.76h1.203v6.719h1.484v1.032Zm-2.57-1.032V9.349c0-.652.022-1.388.068-2.208h-.055c-.219.437-.424.8-.615 1.087l-3.124 4.443h3.726ZM136.659 16l4.143-8.948h-5.448V6.006h6.651v.909L137.917 16h-1.258ZM18.343 14.098a10.49 10.49 0 0 1-3.236-.513.896.896 0 0 0-.926.22l-1.44 1.806c-2.593-1.238-5.023-3.575-6.315-6.261l1.787-1.522a.935.935 0 0 0 .22-.935 10.223 10.223 0 0 1-.513-3.235.916.916 0 0 0-.907-.908H3.84c-.495 0-1.091.22-1.091.908 0 8.515 7.086 15.592 15.593 15.592.65 0 .907-.578.907-1.082v-3.162a.916.916 0 0 0-.907-.908Z" fill="currentcolor"/></svg><svg fill="none" viewBox="0 0 30 30" id="ok" xmlns="http://www.w3.org/2000/svg"><path d="M12.853 9.99a2.24 2.24 0 1 0 4.478 0 2.24 2.24 0 0 0-4.478 0Z" fill="currentColor"/><path fill-rule="evenodd" clip-rule="evenodd" d="M15 30c8.284 0 15-6.716 15-15 0-8.284-6.716-15-15-15C6.716 0 0 6.716 0 15c0 8.284 6.716 15 15 15ZM9.675 9.99a5.417 5.417 0 1 1 10.834 0 5.417 5.417 0 0 1-10.834 0Zm10.866 8.204c-.069.055-1.368 1.082-3.537 1.524l3.274 3.244a1.473 1.473 0 1 1-2.082 2.085l-3.178-3.095-2.886 3.075c-.29.3-.675.45-1.06.45a1.473 1.473 0 0 1-1.06-2.495l3.107-3.247c-2.23-.431-3.583-1.485-3.653-1.541a1.473 1.473 0 0 1 1.843-2.298c.014.01 1.429 1.074 3.71 1.075 2.28-.001 3.666-1.064 3.68-1.075a1.473 1.473 0 0 1 1.842 2.298Z" fill="currentColor"/></svg><svg fill="none" viewBox="0 0 16 15" id="star" xmlns="http://www.w3.org/2000/svg"><path d="m15.226 5.282-4.717-.684L8.4.33a.597.597 0 0 0-1.066 0L5.225 4.598.51 5.282a.594.594 0 0 0-.33 1.013l3.413 3.321-.806 4.69a.592.592 0 0 0 .862.625l4.22-2.214 4.218 2.214a.593.593 0 0 0 .862-.625l-.806-4.69 3.413-3.321a.592.592 0 0 0-.33-1.013Z" fill="#FF862F"/></svg><svg fill="none" viewBox="0 0 26 28" id="user" xmlns="http://www.w3.org/2000/svg"><path d="M24.98 22.85a13.17 13.17 0 0 0-2.787-4.203 12.977 12.977 0 0 0-4.131-2.835l-.042-.018a8.752 8.752 0 0 0 3.554-7.07C21.574 3.904 17.737 0 13 0S4.426 3.905 4.426 8.724c0 2.909 1.4 5.487 3.554 7.073-.014.008-.028.011-.042.018a12.864 12.864 0 0 0-4.131 2.835 13.227 13.227 0 0 0-2.787 4.204A13.269 13.269 0 0 0 0 27.712a.286.286 0 0 0 .079.203.276.276 0 0 0 .198.085H2.35a.278.278 0 0 0 .277-.274 10.576 10.576 0 0 1 3.035-7.187c1.96-1.994 4.564-3.092 7.337-3.092 2.773 0 5.376 1.098 7.337 3.092a10.576 10.576 0 0 1 3.035 7.187.276.276 0 0 0 .277.274h2.074a.273.273 0 0 0 .198-.085.282.282 0 0 0 .079-.203 13.302 13.302 0 0 0-1.02-4.862ZM13 14.774c-1.587 0-3.08-.63-4.204-1.773a6.064 6.064 0 0 1-1.743-4.277c0-1.615.62-3.135 1.743-4.278A5.857 5.857 0 0 1 13 2.673c1.587 0 3.08.63 4.204 1.773a6.064 6.064 0 0 1 1.743 4.278A6.064 6.064 0 0 1 17.204 13 5.857 5.857 0 0 1 13 14.774Z" fill="currentColor"/></svg><svg fill="none" viewBox="0 0 30 30" id="vk" xmlns="http://www.w3.org/2000/svg"><path d="M15 0C6.716 0 0 6.716 0 15c0 8.284 6.716 15 15 15 8.284 0 15-6.716 15-15 0-8.284-6.716-15-15-15Zm7.609 16.622c.699.683 1.439 1.326 2.066 2.08.278.333.54.677.74 1.065.285.553.027 1.159-.467 1.192l-3.073-.001c-.794.066-1.426-.255-1.958-.797-.425-.433-.82-.894-1.229-1.342a2.871 2.871 0 0 0-.553-.492c-.42-.272-.783-.189-1.023.249-.245.445-.3.939-.324 1.434-.033.725-.252.914-.979.948-1.554.073-3.028-.163-4.398-.946-1.208-.69-2.144-1.666-2.959-2.77-1.587-2.152-2.803-4.514-3.895-6.944-.246-.547-.066-.84.538-.85a85.522 85.522 0 0 1 3.009-.002c.408.007.678.24.835.625.542 1.334 1.206 2.603 2.039 3.78.222.313.448.625.77.846.357.245.628.164.796-.233.107-.253.154-.523.177-.794.08-.927.09-1.854-.049-2.777-.086-.578-.41-.951-.987-1.06-.293-.056-.25-.165-.108-.332.248-.29.48-.47.944-.47h3.472c.547.107.67.353.744.904l.003 3.859c-.006.213.107.845.49.985.307.101.51-.145.693-.34.833-.883 1.426-1.926 1.957-3.005.235-.476.437-.969.634-1.462.146-.365.373-.545.785-.539l3.343.004c.099 0 .199.001.296.018.564.097.718.339.544.889-.275.863-.808 1.583-1.329 2.304-.558.772-1.154 1.517-1.707 2.293-.508.709-.468 1.066.163 1.681Z" fill="currentColor"/></svg></svg>