<?xml version="1.0" encoding="UTF-8" standalone="no"?>
<svg
   xmlns:dc="http://purl.org/dc/elements/1.1/"
   xmlns:cc="http://creativecommons.org/ns#"
   xmlns:rdf="http://www.w3.org/1999/02/22-rdf-syntax-ns#"
   xmlns:svg="http://www.w3.org/2000/svg"
   xmlns="http://www.w3.org/2000/svg"
   xmlns:sodipodi="http://sodipodi.sourceforge.net/DTD/sodipodi-0.dtd"
   xmlns:inkscape="http://www.inkscape.org/namespaces/inkscape"
   width="513"
   height="114"
   viewBox="0 0 513 114"
   fill="none"
   version="1.1"
   id="svg4"
   sodipodi:docname="Spiral-2.svg"
   inkscape:version="1.0.2 (e86c870879, 2021-01-15, custom)">
  <metadata
     id="metadata10">
    <rdf:RDF>
      <cc:Work
         rdf:about="">
        <dc:format>image/svg+xml</dc:format>
        <dc:type
           rdf:resource="http://purl.org/dc/dcmitype/StillImage" />
      </cc:Work>
    </rdf:RDF>
  </metadata>
  <defs
     id="defs8" />
  <sodipodi:namedview
     pagecolor="#ffffff"
     bordercolor="#666666"
     borderopacity="1"
     objecttolerance="10"
     gridtolerance="10"
     guidetolerance="10"
     inkscape:pageopacity="0"
     inkscape:pageshadow="2"
     inkscape:window-width="1465"
     inkscape:window-height="834"
     id="namedview6"
     showgrid="false"
     inkscape:zoom="2.5360624"
     inkscape:cx="24.535599"
     inkscape:cy="57"
     inkscape:window-x="0"
     inkscape:window-y="0"
     inkscape:window-maximized="0"
     inkscape:current-layer="svg4" />
  <path
     opacity="0.5"
     d="m -22.9679,1 c -12.8467,0 -23.2606,32.0507 -23.2606,71.5878 0,22.1576 4.4079,40.1202 9.8462,40.1202 5.4383,0 9.847,-17.9626 9.847,-40.1202 C -26.5353,33.0507 -36.95,1 -49.7967,1 c -12.8467,0 -23.2606,32.0507 -23.2606,71.5878 0,22.1576 4.4087,40.1202 9.8462,40.1202 5.4383,0 9.847,-17.9626 9.847,-40.1202 C -53.3641,33.0507 -63.7788,1 -76.6247,1 c -12.8467,0 -23.2614,32.0507 -23.2614,71.5878 0,22.1576 4.4087,40.1202 9.847,40.1202 5.4375,0 9.8462,-17.9626 9.8462,-40.1202 C -80.1929,33.0507 -90.6707,1 -103.596,1"
     stroke="#a1a6b4"
     stroke-linecap="round"
     id="path2"
     sodipodi:nodetypes="csssssssssssc" />
</svg>
