<svg width="429" height="163" viewBox="0 0 429 163" fill="none" xmlns="http://www.w3.org/2000/svg">
<path d="M187.49 139.386V148.755H189.156V145.432C189.156 145.242 189.146 145.031 189.146 144.803C189.146 144.56 189.146 144.311 189.128 144.062C189.124 143.802 189.107 143.559 189.099 143.299C189.078 143.043 189.06 142.797 189.025 142.569C189.003 142.34 188.971 142.14 188.939 141.954H188.95L191.545 148.755H192.51C192.51 148.755 193.475 148.755 193.475 146.637V139.386H191.798V142.702C191.798 142.973 191.798 143.261 191.812 143.559C191.823 143.851 191.823 144.153 191.841 144.455C191.859 144.768 191.88 145.07 191.908 145.358C191.933 145.656 191.983 145.93 192.033 146.201H192.015L189.423 139.386H187.49ZM183.232 140.637C183.499 140.637 183.716 140.696 183.887 140.833C184.065 140.953 184.211 141.142 184.293 141.381C184.389 141.617 184.432 141.898 184.432 142.235V146.039C184.429 146.531 184.332 146.904 184.122 147.167C183.919 147.431 183.627 147.546 183.232 147.546C182.812 147.546 182.506 147.42 182.314 147.156C182.104 146.897 182.015 146.528 182.015 146.039V142.203C182.015 141.708 182.104 141.325 182.314 141.048C182.506 140.777 182.812 140.644 183.232 140.637ZM180.192 142.425V145.822C180.192 146.412 180.267 146.904 180.413 147.318C180.566 147.712 180.769 148.038 181.036 148.277C181.317 148.53 181.637 148.709 182.015 148.815C182.385 148.931 182.791 148.98 183.232 148.98C183.692 148.98 184.105 148.931 184.464 148.818C184.849 148.709 185.158 148.53 185.425 148.295C185.696 148.049 185.899 147.729 186.038 147.325C186.18 146.904 186.255 146.419 186.255 145.822V142.425C186.255 141.827 186.18 141.325 186.038 140.914C185.899 140.503 185.696 140.176 185.425 139.927C185.158 139.674 184.849 139.488 184.464 139.375C184.105 139.27 183.692 139.21 183.232 139.21C182.791 139.21 182.385 139.27 182.015 139.386C181.637 139.498 181.317 139.674 181.036 139.927C180.769 140.183 180.566 140.51 180.413 140.928C180.267 141.346 180.192 141.831 180.192 142.425ZM178.946 139.386H178.063C178.063 139.386 177.166 139.386 177.166 141.504V148.755H178.063C178.063 148.755 178.946 148.755 178.946 146.637V139.386ZM174.076 140.809H176.29V139.386H170.088V140.809H172.299V148.755H174.076V140.809ZM169.198 139.386H168.308C168.308 139.386 167.414 139.386 167.414 141.504V148.755H168.308C168.308 148.755 169.198 148.755 169.198 146.637V139.386ZM160.572 148.755H164.15C164.509 148.755 164.83 148.681 165.1 148.548C165.36 148.411 165.588 148.221 165.77 147.971C165.948 147.729 166.076 147.438 166.172 147.1C166.254 146.76 166.307 146.377 166.307 145.976C166.307 145.572 166.24 145.217 166.147 144.929C166.037 144.638 165.887 144.395 165.677 144.199C165.474 143.998 165.211 143.84 164.908 143.721C165.104 143.675 165.275 143.594 165.439 143.464C165.588 143.32 165.72 143.166 165.827 142.973C165.933 142.765 166.022 142.569 166.079 142.347C166.14 142.122 166.172 141.887 166.172 141.676C166.172 141.367 166.126 141.079 166.037 140.805C165.948 140.535 165.809 140.292 165.638 140.074C165.449 139.864 165.196 139.695 164.908 139.569C164.613 139.453 164.264 139.386 163.851 139.386H162.206C162.206 139.386 160.572 139.386 160.572 141.504V148.755ZM162.345 144.515H163.495C163.826 144.529 164.064 144.648 164.228 144.898C164.406 145.14 164.481 145.505 164.481 145.966C164.481 146.313 164.442 146.587 164.374 146.809C164.292 147.019 164.185 147.174 164.032 147.276C163.893 147.374 163.708 147.431 163.495 147.42H162.345V144.515ZM162.345 140.71H163.306C163.577 140.71 163.787 140.759 163.95 140.854C164.104 140.939 164.217 141.076 164.292 141.251C164.346 141.43 164.395 141.655 164.388 141.915C164.395 142.316 164.299 142.625 164.121 142.857C163.958 143.067 163.666 143.183 163.292 143.187H162.345V140.71ZM159.269 139.386H158.375C158.375 139.386 157.478 139.386 157.478 141.504V148.755H158.375C158.375 148.755 159.269 148.755 159.269 146.637V139.386ZM152.049 139.386H151.162C151.162 139.386 150.269 139.386 150.269 141.504V148.755H152.049V144.423H154.402V148.755H155.292C155.292 148.755 156.193 148.755 156.193 146.637V139.386H154.402V142.99H152.049V139.386ZM142.764 139.386L144.943 143.942L142.671 148.755H144.629L146.05 145.305L147.406 148.755H149.404L147.004 143.942L149.322 139.386H147.317L146.05 142.432L144.825 139.386H142.764ZM137 139.386V148.755H142.009V147.329H138.769V144.423H141.728V142.99H138.769V140.809H142.009V139.386H137ZM214.811 123.648H213.921C213.921 123.648 213.034 123.648 213.034 125.77V133.003H218.051V131.591H214.811V123.648ZM208.139 129.177L208.979 124.821L209.709 129.177H208.139ZM205.437 133.003H207.349L207.911 130.572H209.923L210.368 133.003H211.329C211.329 133.003 212.294 133.003 211.824 130.941L210.211 123.648H209.011C209.011 123.648 207.819 123.648 207.306 125.696L205.437 133.003ZM198.747 123.648V133.003H200.396V129.697V129.061C200.396 128.826 200.389 128.577 200.378 128.32C200.374 128.064 200.36 127.811 200.35 127.554C200.332 127.315 200.307 127.066 200.289 126.831C200.257 126.599 200.221 126.392 200.189 126.219H200.204L202.788 133.003H203.76C203.76 133.003 204.729 133.003 204.729 130.895V123.648H203.059V126.961C203.059 127.231 203.059 127.516 203.062 127.811C203.073 128.113 203.073 128.412 203.098 128.714C203.116 129.016 203.137 129.318 203.166 129.609C203.194 129.915 203.237 130.196 203.28 130.467H203.269L200.666 123.648H198.747ZM194.497 124.899C194.742 124.899 194.959 124.969 195.148 125.088C195.33 125.215 195.458 125.394 195.55 125.636C195.647 125.875 195.689 126.167 195.689 126.5V130.301C195.682 130.793 195.586 131.166 195.376 131.422C195.18 131.682 194.874 131.823 194.497 131.823C194.08 131.812 193.767 131.682 193.56 131.419C193.357 131.162 193.258 130.783 193.258 130.301V126.476C193.258 125.974 193.357 125.584 193.56 125.313C193.767 125.039 194.08 124.899 194.497 124.899ZM191.442 126.673V130.077C191.442 130.67 191.506 131.166 191.659 131.573C191.812 131.974 192.019 132.297 192.296 132.543C192.571 132.792 192.887 132.971 193.265 133.07C193.642 133.186 194.048 133.235 194.497 133.231C194.942 133.235 195.358 133.186 195.732 133.07C196.092 132.975 196.412 132.792 196.679 132.55C196.946 132.307 197.149 131.981 197.291 131.584C197.434 131.169 197.501 130.674 197.509 130.077V126.673C197.501 126.079 197.434 125.58 197.291 125.162C197.149 124.758 196.946 124.428 196.679 124.182C196.412 123.929 196.092 123.743 195.732 123.641C195.358 123.522 194.942 123.469 194.497 123.476C194.048 123.469 193.642 123.522 193.265 123.648C192.887 123.757 192.571 123.943 192.296 124.189C192.019 124.445 191.812 124.769 191.659 125.183C191.506 125.598 191.442 126.093 191.442 126.673ZM190.196 123.648H189.306C189.306 123.648 188.419 123.648 188.419 125.77V133.003H189.306C189.306 133.003 190.196 133.003 190.196 130.895V123.648ZM185.322 125.071H187.537V123.648H181.335V125.071H183.542V133.003H185.322V125.071ZM177.326 129.177L178.191 124.821L178.907 129.177H177.326ZM174.642 133.003H176.564L177.105 130.572H179.127L179.562 133.003H180.523C180.523 133.003 181.488 133.003 181.036 130.941L179.412 123.648H178.212C178.212 123.648 177.02 123.648 176.5 125.696L174.642 133.003ZM167.945 123.648V133.003H169.608V129.697V129.061C169.6 128.826 169.6 128.577 169.586 128.32C169.579 128.064 169.568 127.811 169.547 127.554C169.529 127.315 169.508 127.066 169.483 126.831C169.454 126.599 169.43 126.392 169.383 126.219H169.408L172.007 133.003H172.958C172.958 133.003 173.922 133.003 173.922 130.895V123.648H172.263V126.961C172.263 127.231 172.271 127.516 172.274 127.811C172.281 128.113 172.288 128.412 172.299 128.714C172.313 129.016 172.338 129.318 172.363 129.609C172.395 129.915 172.431 130.196 172.484 130.467H172.463L169.867 123.648H167.945ZM162.434 125.036H163.587C163.851 125.029 164.082 125.057 164.271 125.141C164.47 125.208 164.623 125.338 164.73 125.541C164.833 125.735 164.894 125.991 164.894 126.332C164.89 126.588 164.865 126.813 164.784 126.992C164.719 127.178 164.613 127.315 164.495 127.414C164.381 127.519 164.242 127.589 164.089 127.649C163.943 127.681 163.787 127.705 163.626 127.702H162.434V125.036ZM162.434 129.037H163.737C163.933 129.047 164.104 129.079 164.242 129.156C164.385 129.227 164.481 129.321 164.577 129.455C164.652 129.585 164.719 129.725 164.751 129.894C164.784 130.056 164.801 130.231 164.801 130.407V131.485C164.801 131.682 164.805 131.879 164.83 132.086C164.865 132.283 164.894 132.458 164.958 132.62C165.029 132.785 165.115 132.926 165.232 133.003H167.009V132.729C166.873 132.718 166.774 132.648 166.706 132.518C166.656 132.371 166.621 132.181 166.61 131.949C166.585 131.707 166.574 131.44 166.585 131.159V129.968C166.585 129.792 166.553 129.609 166.521 129.448C166.485 129.272 166.421 129.1 166.325 128.949C166.229 128.801 166.087 128.661 165.926 128.549C165.759 128.429 165.549 128.341 165.3 128.285C165.574 128.25 165.809 128.148 166.026 127.972C166.24 127.8 166.407 127.551 166.528 127.231C166.653 126.919 166.706 126.529 166.706 126.072C166.706 125.738 166.663 125.411 166.549 125.12C166.432 124.828 166.272 124.579 166.069 124.358C165.866 124.133 165.62 123.961 165.339 123.831C165.051 123.704 164.727 123.648 164.346 123.648H162.501C162.501 123.648 160.654 123.648 160.654 125.77V133.003H162.434V129.037ZM154.509 123.648V133.003H159.532V131.591H156.293V128.682H159.247V127.252H156.293V125.071H159.532V123.648H154.509ZM151.419 125.071H153.63V123.648H147.424V125.071H149.639V133.003H151.419V125.071ZM140.56 123.648V133.003H142.23V129.697C142.23 129.504 142.23 129.29 142.223 129.061C142.223 128.826 142.219 128.577 142.201 128.32C142.194 128.064 142.184 127.811 142.173 127.554C142.155 127.315 142.141 127.066 142.109 126.831C142.084 126.599 142.045 126.392 142.009 126.219H142.013L144.622 133.003H145.587C145.587 133.003 146.541 133.003 146.541 130.895V123.648H144.879V126.961C144.879 127.231 144.879 127.516 144.886 127.811C144.889 128.113 144.904 128.412 144.911 128.714C144.939 129.016 144.95 129.318 144.982 129.609C145.01 129.915 145.05 130.196 145.096 130.467H145.082L142.483 123.648H140.56ZM138.769 123.648H137.883C137.883 123.648 137 123.648 137 125.77V133.003H137.883C137.883 133.003 138.769 133.003 138.769 130.895V123.648ZM189.975 113.446L190.833 109.087L191.545 113.446H189.975ZM187.284 117.268H189.192L189.751 114.834H191.77L192.215 117.268H193.169C193.169 117.268 194.137 117.268 193.674 115.203L192.062 107.903H190.858C190.858 107.903 189.666 107.903 189.131 109.962L187.284 117.268ZM182.684 107.903H181.794C181.794 107.903 180.9 107.903 180.9 110.021V117.268H182.684V114.458L183.378 113.538L184.938 117.268H186.924L184.464 111.967L186.849 107.903H184.834L182.684 111.967V107.903ZM174.047 117.268H177.639C177.999 117.268 178.312 117.205 178.576 117.068C178.839 116.928 179.074 116.738 179.245 116.492C179.423 116.25 179.551 115.948 179.651 115.617C179.74 115.28 179.782 114.904 179.782 114.504C179.782 114.089 179.729 113.738 179.629 113.453C179.523 113.169 179.37 112.916 179.156 112.719C178.946 112.519 178.697 112.354 178.387 112.238C178.579 112.203 178.761 112.097 178.921 111.982C179.074 111.841 179.206 111.676 179.305 111.486C179.423 111.297 179.505 111.086 179.562 110.871C179.622 110.64 179.651 110.411 179.651 110.19C179.651 109.888 179.604 109.6 179.523 109.329C179.43 109.055 179.295 108.809 179.113 108.595C178.921 108.384 178.682 108.212 178.39 108.086C178.102 107.963 177.753 107.91 177.326 107.903H175.692C175.692 107.903 174.047 107.903 174.047 110.021V117.268ZM175.82 113.046H176.974C177.298 113.046 177.554 113.169 177.718 113.418C177.885 113.664 177.96 114.016 177.96 114.483C177.96 114.834 177.917 115.108 177.864 115.329C177.775 115.533 177.671 115.695 177.518 115.793C177.372 115.888 177.187 115.937 176.974 115.937H175.82V113.046ZM175.82 109.241H176.792C177.052 109.241 177.262 109.273 177.433 109.375C177.586 109.459 177.7 109.593 177.767 109.779C177.842 109.951 177.885 110.165 177.885 110.436C177.885 110.84 177.775 111.152 177.607 111.37C177.436 111.595 177.162 111.708 176.771 111.711H175.82V109.241ZM169.148 113.446L170.003 109.087L170.729 113.446H169.148ZM166.46 117.268H168.358L168.92 114.834H170.946L171.384 117.268H172.338C172.338 117.268 173.299 117.268 172.847 115.203L171.22 107.903H170.024C170.024 107.903 168.831 107.903 168.312 109.962L166.46 117.268ZM164.435 109.333H166.642V107.903H160.433V109.333H162.644V117.268H164.435V109.333ZM159.618 110.952V110.485C159.618 109.902 159.507 109.403 159.29 108.999C159.08 108.595 158.763 108.268 158.343 108.065C157.927 107.84 157.414 107.741 156.798 107.731C155.844 107.731 155.114 107.987 154.616 108.518C154.128 109.041 153.882 109.856 153.882 110.952V114.374C153.882 114.792 153.921 115.175 153.996 115.554C154.092 115.927 154.245 116.26 154.448 116.552C154.669 116.843 154.982 117.075 155.342 117.244C155.719 117.395 156.2 117.49 156.78 117.5C157.332 117.49 157.798 117.395 158.158 117.244C158.532 117.075 158.824 116.843 159.037 116.552C159.244 116.26 159.397 115.927 159.486 115.554C159.575 115.171 159.618 114.771 159.618 114.342V113.931H157.834V114.448C157.834 114.845 157.798 115.157 157.72 115.4C157.638 115.642 157.514 115.811 157.357 115.916C157.207 116.021 157.005 116.067 156.773 116.067C156.506 116.067 156.317 116.021 156.161 115.916C156.004 115.818 155.88 115.646 155.808 115.407C155.73 115.164 155.702 114.855 155.702 114.448V110.749C155.702 110.352 155.737 110.039 155.812 109.811C155.887 109.575 156.018 109.403 156.171 109.312C156.328 109.213 156.528 109.157 156.78 109.157C157.033 109.157 157.232 109.213 157.393 109.312C157.542 109.403 157.663 109.575 157.731 109.811C157.806 110.039 157.834 110.352 157.834 110.749V110.952H159.618ZM152.65 107.903H151.76C151.76 107.903 150.863 107.903 150.863 110.021V117.268H151.76C151.76 117.268 152.65 117.268 152.65 115.154V107.903ZM145.626 107.903H144.733C144.733 107.903 143.85 107.903 143.85 110.021V117.268H147.282C147.759 117.268 148.154 117.149 148.492 116.903C148.816 116.643 149.08 116.306 149.251 115.856C149.429 115.407 149.51 114.876 149.518 114.279C149.518 114.001 149.478 113.738 149.411 113.482C149.329 113.222 149.24 112.969 149.097 112.726C148.955 112.494 148.788 112.28 148.581 112.097C148.396 111.911 148.182 111.774 147.93 111.669C147.677 111.574 147.417 111.518 147.125 111.518H145.626V107.903ZM145.626 112.941H146.655C146.876 112.941 147.065 113.011 147.221 113.13C147.367 113.264 147.492 113.439 147.574 113.675C147.656 113.907 147.688 114.174 147.688 114.483C147.688 114.834 147.656 115.108 147.574 115.329C147.492 115.533 147.367 115.695 147.221 115.793C147.065 115.888 146.876 115.937 146.655 115.937H145.626V112.941ZM137 117.268H140.585C140.945 117.268 141.251 117.205 141.529 117.068C141.799 116.928 142.013 116.738 142.194 116.492C142.369 116.25 142.508 115.948 142.589 115.617C142.689 115.28 142.725 114.904 142.725 114.504C142.725 114.089 142.671 113.738 142.568 113.453C142.461 113.169 142.312 112.916 142.109 112.719C141.902 112.519 141.642 112.354 141.333 112.238C141.529 112.203 141.714 112.097 141.863 111.982C142.013 111.841 142.155 111.676 142.262 111.486C142.369 111.297 142.447 111.086 142.508 110.871C142.568 110.64 142.589 110.411 142.589 110.19C142.589 109.888 142.565 109.6 142.461 109.329C142.383 109.055 142.251 108.809 142.063 108.595C141.87 108.384 141.632 108.212 141.34 108.086C141.041 107.963 140.692 107.91 140.286 107.903H138.627C138.627 107.903 137 107.903 137 110.021V117.268ZM138.769 113.046H139.926C140.247 113.046 140.496 113.169 140.663 113.418C140.824 113.664 140.913 114.016 140.913 114.483C140.913 114.834 140.87 115.108 140.799 115.329C140.724 115.533 140.617 115.695 140.475 115.793C140.325 115.888 140.14 115.937 139.926 115.937H138.769V113.046ZM138.769 109.241H139.741C140.008 109.241 140.211 109.273 140.379 109.375C140.528 109.459 140.653 109.593 140.713 109.779C140.784 109.951 140.824 110.165 140.82 110.436C140.824 110.84 140.731 111.152 140.553 111.37C140.379 111.595 140.097 111.708 139.72 111.711H138.769V109.241ZM233.242 96.3279H232.355C231.896 96.3279 231.558 96.2015 231.33 95.9696C231.109 95.7237 230.992 95.3794 230.992 94.9227C230.992 94.4907 231.109 94.1394 231.33 93.911C231.558 93.6757 231.896 93.5492 232.355 93.5492H233.242V96.3279ZM233.242 97.7155V101.538H234.136C234.136 101.538 235.022 101.538 235.022 99.4088V92.1581H231.586C231.216 92.1581 230.871 92.2389 230.575 92.3759C230.276 92.5164 230.024 92.7166 229.813 92.9661C229.6 93.226 229.447 93.5 229.333 93.8337C229.226 94.1675 229.173 94.5223 229.173 94.9052C229.173 95.2916 229.237 95.671 229.336 96.0012C229.457 96.356 229.632 96.6441 229.86 96.9076C230.07 97.171 230.337 97.3677 230.643 97.5118L228.82 101.538H230.757L232.38 97.7155H233.242ZM224.327 97.7085L225.196 93.3384L225.908 97.7085H224.327ZM221.643 101.538H223.551L224.121 99.0891H226.132L226.581 101.538H227.539C227.539 101.538 228.503 101.538 228.044 99.465L226.421 92.1581H225.217C225.217 92.1581 224.025 92.1581 223.505 94.2167L221.643 101.538ZM216.798 92.1581H215.907C215.907 92.1581 215.007 92.1581 215.007 94.2799V101.538H216.798V97.2026H219.151V101.538H220.037C220.037 101.538 220.938 101.538 220.938 99.4088V92.1581H219.151V95.7764H216.798V92.1581ZM211.614 93.5984V100.101H208.976C209.125 99.8128 209.239 99.5212 209.35 99.2296C209.453 98.931 209.535 98.6219 209.613 98.2811C209.688 97.9474 209.734 97.568 209.773 97.157C209.805 96.7214 209.827 96.2542 209.827 95.7167V93.5984H211.614ZM208.079 92.1581V95.0773C208.079 95.6007 208.064 96.0609 208.043 96.4614C208.029 96.8689 207.997 97.2448 207.947 97.575C207.911 97.8982 207.847 98.2038 207.783 98.4849C207.716 98.7694 207.63 99.0399 207.545 99.3104C207.445 99.5563 207.342 99.8338 207.217 100.101H206.658V103.417H208.378V101.538H212.255V103.417H213.967V100.101H213.405V92.1581H208.079ZM202.664 93.4298C202.916 93.4298 203.137 93.4895 203.312 93.6159C203.493 93.7424 203.628 93.9181 203.728 94.1604C203.814 94.3923 203.871 94.6804 203.871 95.0141V98.808C203.856 99.3174 203.753 99.6898 203.55 99.9568C203.34 100.203 203.052 100.322 202.664 100.322C202.24 100.322 201.934 100.192 201.724 99.9427C201.535 99.6722 201.428 99.3104 201.428 98.808V94.9895C201.428 94.4942 201.535 94.1042 201.724 93.8337C201.934 93.5562 202.24 93.4298 202.664 93.4298ZM199.613 95.2073V98.6078C199.613 99.1945 199.687 99.6722 199.844 100.087C199.99 100.487 200.193 100.817 200.463 101.056C200.745 101.313 201.072 101.488 201.435 101.594C201.809 101.703 202.219 101.759 202.664 101.759C203.116 101.759 203.522 101.703 203.903 101.594C204.269 101.488 204.583 101.313 204.846 101.067C205.12 100.828 205.327 100.501 205.466 100.101C205.611 99.6898 205.679 99.198 205.679 98.6078V95.2073C205.679 94.6066 205.611 94.1042 205.466 93.6862C205.327 93.2857 205.12 92.9485 204.846 92.7061C204.583 92.4532 204.269 92.274 203.903 92.1475C203.522 92.0457 203.116 92 202.664 92C202.219 92 201.809 92.0457 201.435 92.1581C201.072 92.2775 200.745 92.4532 200.463 92.7096C200.193 92.9661 199.99 93.2998 199.844 93.6967C199.687 94.1113 199.613 94.6066 199.613 95.2073ZM194.379 93.5492H195.283C195.732 93.5492 196.063 93.6757 196.287 93.911C196.512 94.1394 196.615 94.4907 196.615 94.9227C196.615 95.3794 196.512 95.7237 196.287 95.9696C196.063 96.2015 195.732 96.3279 195.283 96.3279H194.379V93.5492ZM194.379 97.7155H195.942C196.316 97.7155 196.672 97.6418 196.971 97.4907C197.281 97.3467 197.541 97.157 197.758 96.89C197.986 96.6265 198.146 96.3279 198.256 95.9907C198.381 95.664 198.438 95.2916 198.438 94.9052C198.438 94.5223 198.381 94.1675 198.274 93.8337C198.157 93.5 197.989 93.226 197.768 92.9661C197.562 92.7166 197.298 92.5164 196.992 92.3759C196.69 92.2389 196.352 92.1581 195.978 92.1581H194.287C194.287 92.1581 192.599 92.1581 192.599 94.2799V101.538H194.379V97.7155ZM187.69 97.7085L188.551 93.3384L189.274 97.7085H187.69ZM185.009 101.538H186.921L187.48 99.0891H189.502L189.936 101.538H190.897C190.897 101.538 191.859 101.538 191.403 99.465L189.779 92.1581H188.583C188.583 92.1581 187.38 92.1581 186.864 94.2167L185.009 101.538ZM180.156 92.1581H179.259C179.259 92.1581 178.369 92.1581 178.369 94.2799V101.538H180.156V97.2026H182.51V101.538H183.392C183.392 101.538 184.29 101.538 184.29 99.4088V92.1581H182.51V95.7764H180.156V92.1581ZM170.782 92.1581L173.364 99.5668C173.264 99.8338 173.161 100.034 173.022 100.143C172.894 100.259 172.748 100.333 172.57 100.322C172.456 100.322 172.345 100.305 172.281 100.287C172.196 100.255 172.128 100.241 172.075 100.227V101.587C172.231 101.636 172.395 101.675 172.57 101.713C172.755 101.745 172.94 101.759 173.15 101.759C173.442 101.759 173.691 101.699 173.93 101.566C174.154 101.432 174.367 101.214 174.549 100.923C174.738 100.621 174.912 100.241 175.076 99.746L177.618 92.1581H175.671L174.232 97.1359L172.783 92.1581H170.782ZM167.945 93.5984V100.101H165.3C165.439 99.8128 165.553 99.5212 165.656 99.2296C165.77 98.931 165.844 98.6219 165.926 98.2811C165.998 97.9474 166.055 97.568 166.079 97.157C166.119 96.7214 166.147 96.2542 166.147 95.7167V93.5984H167.945ZM164.388 92.1581V95.0773C164.388 95.6007 164.381 96.0609 164.356 96.4614C164.331 96.8689 164.306 97.2448 164.264 97.575C164.221 97.8982 164.168 98.2038 164.096 98.4849C164.032 98.7694 163.958 99.0399 163.861 99.3104C163.762 99.5563 163.659 99.8338 163.537 100.101H162.975V103.417H164.687V101.538H168.582V103.417H170.295V100.101H169.714V92.1581H164.388ZM152.188 92.1581L154.555 96.219L152.106 101.538H154.092L155.652 97.7928L156.353 98.7132V101.538H158.13V98.7132L158.838 97.7928L160.394 101.538H162.391L159.927 96.219L162.306 92.1581H160.283L158.13 96.219V92.1581H156.353V96.219L154.188 92.1581H152.188ZM146.481 92.1581V101.538H151.497V100.101H148.264V97.2026H151.216V95.7764H148.264V93.5984H151.497V92.1581H146.481ZM137 92.1581V101.538H138.648V93.0539H138.659C138.659 93.0539 138.67 93.0539 139.111 95.1265L140.457 101.538H141.087C141.087 101.538 141.728 101.538 142.166 99.4509L143.504 93.0398H143.508C143.508 93.0398 143.522 93.0398 143.522 95.1687V101.538H144.355C144.355 101.538 145.185 101.538 145.185 99.4088V92.1581H142.337L141.087 98.253L139.837 92.1581H137Z" fill="#ED1C24"/>
<path d="M77.1031 119.114C91.5147 119.114 103.21 107.458 103.21 93.0554C103.21 78.6629 91.5147 67 77.1031 67C62.6916 67 51 78.6629 51 93.0554C51 107.458 62.6916 119.114 77.1031 119.114Z" fill="#ED1C24"/>
<path d="M396.724 68.4284C395.614 68.4284 393.983 68.1474 391.829 67.5888C389.679 67.0408 388.031 66.7738 386.852 66.7738C385.485 66.7738 384.104 67.1918 382.737 68.0385C383.075 61.6519 383.132 53.9481 382.929 44.9023C384.955 54.7947 387.732 60.5208 391.249 62.077C391.58 62.2175 392.224 62.2843 393.189 62.2843C395.03 62.337 396.66 61.7117 398.134 60.3697C399.608 59.0383 400.342 57.3346 400.342 55.2479C400.342 52.2549 398.651 49.1319 395.258 45.8754C392.328 43.3461 389.387 40.7711 386.464 38.1715C382.608 34.2616 380.693 29.1889 380.693 22.9324C380.693 18.4429 382.124 14.6103 384.987 11.4205C387.988 7.97084 391.801 6.25302 396.429 6.25302C399.434 6.25302 402.225 7.53524 404.835 10.1032C407.43 12.6782 408.744 15.4639 408.744 18.4429C408.744 21.1092 408.128 23.4277 406.885 25.3809C405.333 27.7873 403.186 28.9922 400.427 28.9922C398.551 28.9922 397.013 28.0472 395.842 26.1538C394.923 24.594 394.471 22.813 394.471 20.8001C394.471 19.3 394.802 18.0319 395.446 16.9921C396.169 15.6782 397.212 15.0318 398.579 15.0318C401.452 15.0318 402.819 16.9499 402.688 20.8001C402.552 22.813 401.381 23.8177 399.174 23.8177C398.448 23.8177 397.732 23.7228 397.013 23.5261L396.813 23.9196C396.813 24.7662 397.255 25.4512 398.134 25.9641C399.01 26.491 399.786 26.6561 400.427 26.4559C403.104 25.669 404.45 23.3399 404.45 19.423C404.45 17.3363 403.873 15.5026 402.688 13.9077C401.509 12.3163 399.911 11.5224 397.892 11.5224C395.55 11.5224 393.378 12.5939 391.391 14.7438C389.405 16.8832 388.419 19.0682 388.419 21.2813C388.419 24.4711 389.351 27.0742 391.249 29.0871C392.548 30.3904 394.695 31.7534 397.704 33.1867C401.342 34.8764 403.667 36.1235 404.639 36.8893C406.266 38.0696 407.736 39.8226 409.046 42.1727C410.659 44.832 411.456 47.5124 411.392 50.1717C411.254 57.3346 408.971 62.5091 404.546 65.6953C402.072 67.5115 399.469 68.4284 396.724 68.4284ZM373.939 65.7937C372.106 67.2199 370.127 67.9366 367.969 67.9366C364.526 67.9366 361.842 66.5701 359.962 63.8475C358.332 61.4342 357.506 58.4657 357.506 54.9668C357.506 54.7561 357.545 54.0429 357.609 52.8099V49.585C357.609 40.8659 356.313 36.5099 353.703 36.5099H353.212C352.429 36.5099 352.037 37.3881 352.037 39.1376C352.037 44.3543 352.333 49.2021 352.924 53.6881C353.963 60.3873 355.523 64.4974 357.609 65.9834C356.84 67.097 352.105 67.6485 343.447 67.6485C343.034 67.6485 341.581 67.3886 339.039 66.8616C341.449 61.0056 343.034 54.1413 343.828 46.2618C344.28 41.5826 344.508 34.4935 344.508 24.991C344.508 17.3082 342.849 11.1641 339.534 6.54108C340.837 6.80455 342.364 6.93453 344.127 6.93453C345.301 6.93453 347.199 6.82211 349.837 6.59729C352.482 6.35841 354.423 6.25302 355.665 6.25302C360.678 6.25302 364.455 7.99895 367.004 11.5224C369.354 14.5822 370.522 18.7099 370.522 23.9196C370.522 27.6995 369.902 30.5625 368.66 32.5052C367.67 33.8752 366.31 34.8764 364.558 35.5333C363.384 35.9232 362.209 36.3413 361.037 36.8015C362.348 38.1048 363.455 39.7664 364.363 41.7723C365.406 44.1154 365.915 46.3988 365.915 48.6084C365.915 53.0418 366.022 55.7643 366.21 56.8146C366.922 60.2608 368.66 61.9822 371.401 61.9822C373.024 61.9822 374.303 61.1356 375.21 59.4458C375.933 58.0828 376.296 56.5547 376.296 54.8615C376.296 53.2315 376.001 51.6647 375.41 50.1717C374.634 48.1553 373.551 47.1541 372.191 47.1541C371.202 47.1541 370.646 47.7056 370.522 48.8087C371.365 48.6084 371.974 48.6576 372.334 48.9527C372.683 49.2548 372.992 49.5604 373.252 49.8766C374.427 50.9937 374.922 52.838 374.723 55.4481C374.466 58.5676 372.992 60.0606 370.322 59.9306C369.283 59.8709 368.414 59.0173 367.67 57.3908C367.164 56.0945 366.869 54.6999 366.805 53.2034C366.737 51.2466 367.164 49.4199 368.072 47.7302C369.176 45.7173 370.682 44.7021 372.579 44.7021C373.939 44.7021 375.228 45.3555 376.435 46.6588C377.635 47.9585 378.308 49.3602 378.443 50.8602C379.016 54.6226 378.792 57.8896 377.749 60.6191C377.037 62.6391 375.766 64.3569 373.939 65.7937ZM359.478 16.3105C358.296 14.6103 356.865 13.7566 355.17 13.7566C353.073 13.7566 352.037 14.5435 352.037 16.1068C352.037 19.7497 352.557 23.1994 353.614 26.4559C354.319 27.1655 355.206 27.5203 356.249 27.5203C357.609 27.5203 358.805 26.8142 359.766 25.3809C360.557 24.1479 360.938 22.7814 360.938 21.2813C360.938 19.4581 360.446 17.7965 359.478 16.3105ZM334.055 67.0619C322.645 67.5221 313.719 67.6134 307.261 67.3499L305.207 67.2516C310.027 54.3767 312.434 42.524 312.434 31.7288C312.434 26.1257 311.961 21.8329 310.978 18.8399C310.063 16.0365 307.98 12.369 304.73 7.81276C315.15 7.02586 324.439 6.44974 332.585 6.05278C332.649 7.2261 332.809 9.43573 333.069 12.6887C333.343 15.5482 333.468 17.7965 333.468 19.4265V20.3012C332.752 20.238 331.962 19.7216 331.121 18.745C329.886 17.5014 328.871 16.6618 328.092 16.2052C326.586 15.3515 324.731 14.9405 322.52 14.9405H320.758C320.099 17.0166 319.775 19.7813 319.775 23.2275C319.775 26.6842 320.003 29.2241 320.469 30.8435C320.847 31.0403 321.277 31.1351 321.737 31.1351C323.891 31.1351 325.802 30.422 327.501 28.9922C329.85 26.9758 331.317 25.8271 331.905 25.5777C331.833 27.3236 331.833 29.477 331.905 32.0133C331.962 35.5965 332.001 37.75 332.001 38.4596C332.001 38.5193 331.905 39.5943 331.705 41.6844C328.839 39.2851 326.062 38.0696 323.396 38.0696C321.043 38.0696 319.868 39.38 319.868 41.976C319.868 46.599 320.003 49.6904 320.27 51.2467C321.043 55.29 322.773 57.2994 325.446 57.2994C329.103 57.2994 332.488 53.3614 335.618 45.4925C335.753 46.2618 335.807 47.0522 335.807 47.8321C335.807 48.3485 335.479 54.2326 334.831 65.4986C334.767 66.412 334.507 66.9319 334.055 67.0619ZM294.259 51.9282C294.259 57.0149 294.939 61.652 296.317 65.8921C295.331 66.4822 292.497 66.7668 287.805 66.7668C285.455 66.7668 283.312 66.5384 281.35 66.0818C282.461 62.3756 283.016 59.7409 283.016 58.1742C283.016 56.7549 282.86 54.3064 282.525 50.8602C281.486 40.6481 280.378 35.0345 279.196 34.0754C277.067 39.9315 275.974 48.2536 275.974 59.0559C275.974 59.899 276.199 61.1812 276.612 62.9061C277.042 64.6344 277.22 65.9448 277.146 66.8581C272.525 67.6977 266.433 68.1368 258.871 68.1368C258.213 68.1368 257.269 68.0666 256.037 67.9366C254.599 67.8101 253.652 67.7364 253.2 67.7364C260.367 60.0009 263.952 50.1717 263.952 38.2558C263.952 34.23 263.389 30.2955 262.289 26.4524C260.587 20.9863 258.248 18.2532 255.254 18.2532C253.097 18.2532 251.21 19.5249 249.583 22.0647C248.077 24.4043 247.34 26.744 247.34 29.0871C247.34 31.4934 247.91 33.6433 249.088 35.5333C250.334 37.6902 252.05 38.7547 254.268 38.7547C255.906 38.7547 257.202 37.7148 258.181 35.6317C259.103 33.9314 259.551 32.1504 259.551 30.2604C259.551 28.8904 258.989 27.4571 257.842 25.9641C256.707 24.4711 255.45 23.7228 254.076 23.7228C252.125 23.7228 251.142 25.4723 251.142 28.9922C251.666 26.7826 252.605 25.669 253.969 25.669C255.155 25.669 256.194 26.3259 257.113 27.6327C258.024 28.922 258.476 30.1936 258.476 31.4267C258.476 32.4033 257.988 33.5836 257.009 34.9502C256.037 36.3097 255.019 36.9947 253.969 36.9947C252.285 36.9947 250.946 36.1094 249.967 34.3565C248.995 32.737 248.504 30.7452 248.504 28.4056C248.504 26.7826 249.106 25.121 250.313 23.4277C251.516 21.7275 252.869 20.8844 254.368 20.8844C256.194 20.8844 257.828 21.8223 259.263 23.6736C260.698 25.5179 261.41 27.4571 261.41 29.477C261.41 37.8132 258.935 41.9795 253.969 41.9795C251.573 41.9795 249.305 40.7781 247.19 38.4174C245.058 36.0357 243.933 33.5836 243.808 31.0403C243.424 25.9044 243.78 21.9699 244.883 19.2368C246.582 15.0143 247.981 12.1337 249.088 10.6477C251.253 7.71089 253.969 6.25302 257.312 6.25302C261.282 6.25302 264.635 8.48724 267.373 12.9803C269.648 16.8199 270.794 20.8844 270.794 25.1842C270.794 25.3177 270.997 28.6128 271.378 35.0977C271.777 41.5685 271.962 44.9761 271.962 45.2957C274.187 44.9023 275.294 37.8413 275.294 24.1163C275.294 17.6665 273.885 12.8819 271.083 9.75541C272.065 9.49897 273.917 9.40412 276.661 9.46384H280.77C282.86 9.40412 284.476 9.36899 285.605 9.36899C286.744 9.36899 287.314 10.5774 287.314 12.9803C287.314 14.0201 287.16 15.6185 286.836 17.7614C286.498 19.9183 286.345 21.5413 286.345 22.6514C286.345 29.2838 287.513 36.9947 289.852 45.784C290.838 45.1974 291.693 41.5158 292.401 34.7499C293.049 29.1538 293.384 24.9243 293.384 22.0647C293.384 15.6923 292.693 11.2589 291.319 8.78936C290.802 7.87599 292.818 7.41931 297.392 7.41931C298.955 7.41931 300.429 7.5528 301.786 7.81276C299.76 12.2355 297.976 19.3949 296.41 29.2838C294.975 38.3331 294.259 45.8719 294.259 51.9282ZM237.453 58.0828C236.279 61.1356 235.139 63.3873 234.039 64.8136C232.021 67.4096 229.336 68.72 226.018 68.72C221.002 68.72 216.958 64.6098 213.903 56.4212C211.546 50.1717 210.364 44.0592 210.364 38.0591C210.364 31.2335 211.546 24.6994 213.903 18.4464C217.018 10.177 221.386 6.05278 226.997 6.05278C231.227 6.05278 234.751 9.8608 237.557 17.4768C240.031 24.046 241.27 31.0086 241.27 38.3542C241.27 42.9842 240.939 46.7536 240.294 49.6904C239.903 51.2502 238.952 54.0429 237.453 58.0828ZM236.186 30.3552C236.186 27.6327 235.531 24.6994 234.228 21.5659C232.597 17.7965 230.643 15.9101 228.361 15.9101C226.018 15.9101 223.964 18.2532 222.198 22.9324C220.703 27.1655 219.955 31.6656 219.955 36.4045C220.016 50.0066 222.821 56.8146 228.361 56.8146C230.511 56.8146 232.273 55.1214 233.637 51.7385C234.826 49.1319 235.474 46.5288 235.595 43.9292C235.794 41.2594 235.438 38.6809 234.523 36.2113C233.345 33.4818 231.914 32.1152 230.226 32.1152C226.577 32.1785 224.744 34.9712 224.744 40.5041C224.744 42.3308 225.178 43.9889 226.072 45.496C226.94 46.9819 227.841 47.7688 228.763 47.8321C230.184 47.9023 231.106 46.8871 231.49 44.7969C231.227 44.8637 230.732 44.9023 230.027 44.9023C228.66 44.9023 227.595 44.407 226.848 43.4409C226.1 42.4608 225.716 41.2594 225.716 39.8226C225.716 38.3963 226.136 37.0087 226.94 35.6844C227.759 34.3494 228.816 33.7101 230.13 33.7768C232.864 33.8436 234.267 36.5099 234.324 41.7723C234.324 44.3121 233.939 46.3988 233.153 48.0183C232.238 50.1014 230.807 51.1799 228.848 51.2502C226.306 51.3801 224.412 50.1014 223.181 47.4421C222.273 45.4222 221.846 42.9842 221.91 40.1177C221.974 36.7944 222.757 33.9314 224.256 31.5356C225.755 29.1187 227.681 27.9243 230.027 27.9243C231.981 27.9243 233.576 28.7955 234.826 30.5625L236.186 32.4033V30.3552ZM203.247 59.8358C202.97 64.1321 202.809 66.6403 202.745 67.3499C199.552 67.2832 195.322 67.3183 190.043 67.4483C183.713 67.5783 179.48 67.6485 177.322 67.6485C176.03 67.6485 174.592 67.4764 173.025 67.1532C178.113 56.4212 180.654 44.9374 180.654 32.7019C180.654 27.3587 180.167 22.9324 179.181 19.4265C178.013 15.0072 175.862 11.1922 172.737 7.99895C175.531 7.99895 181.427 7.65117 190.416 6.93453C189.971 6.93453 189.427 9.17227 188.768 13.6653C188.188 17.8949 187.889 21.5097 187.889 24.4922C187.889 38.6352 188.049 46.4339 188.376 47.9304C188.576 49.9469 188.9 52.3181 189.359 55.0547C190.003 57.0676 191.207 58.0828 192.969 58.0828C195.775 58.0828 198.409 55.7994 200.894 51.2502C201.474 49.8766 202.517 47.8637 204.016 45.2044C204.6 47.277 204.543 49.852 203.835 52.9118C203.635 53.9481 203.429 56.2561 203.247 59.8358ZM163.658 14.1501C162.348 12.9206 161.02 11.944 159.646 11.2168C157.496 10.177 155.114 9.66408 152.504 9.66408H151.831C151.24 11.0938 150.941 13.6407 150.941 17.2766C150.941 22.6092 151.297 26.0976 152.02 27.7276H152.711C154.206 27.7276 156.111 27.0917 158.421 25.813C160.739 24.5554 162.409 23.231 163.459 21.8645C163.523 25.8271 163.719 31.792 164.05 39.7313C160.127 36.6715 156.858 35.1434 154.174 35.1434C152.088 35.1434 150.977 35.6984 150.838 36.7944C151.105 48.9738 152.796 58.1109 155.933 64.2304C156.324 64.8803 156.709 65.4986 157.104 66.0818C157.563 66.8616 157.788 67.5115 157.788 68.0385C153.747 67.3886 150.493 67.0584 148.015 67.0584C147.168 67.0584 145.573 67.1216 143.226 67.2516C140.873 67.3886 138.62 67.4483 136.476 67.4483C140.393 56.783 142.347 44.3121 142.347 30.0602C142.347 21.8645 141.144 14.5822 138.723 8.2027C137.943 6.18627 136.323 4.33144 133.835 2.63119C134.689 2.12181 139.278 1.53164 147.623 0.881746C155.181 0.28806 160.362 0 163.174 0H164.837C165.089 3.45321 165.445 8.68748 165.89 15.7133H165.606C165.424 15.7133 164.762 15.1969 163.658 14.1501ZM115.852 72.7493C143.045 79.0269 307.197 75.2224 331.93 72.2715C354.141 70.2867 384.812 69.0186 398.537 72.3945C414.13 76.199 431.141 84.8549 428.552 103.565C427.349 112.27 419.182 117.448 411.556 119.376C411.286 125.731 410.118 131.795 407.96 137.556C405.162 145.168 401.638 148.973 397.397 148.973C391.787 148.973 387.415 144.842 384.303 136.572C381.953 130.33 380.775 123.789 380.775 116.96C380.775 110.97 381.953 104.858 384.303 98.608C387.351 90.4053 391.391 86.3127 396.411 86.3127C399.744 86.3127 402.417 87.6055 404.436 90.2156C405.539 91.6454 406.679 93.8936 407.85 96.9534C409.349 100.986 410.303 103.783 410.691 105.346C411.168 107.492 411.471 110.088 411.599 113.141C433.761 108.072 422.817 80.007 397.234 74.7587C354.497 66.8932 154.363 93.9534 103.666 75.5175C108.447 72.8336 114.282 70.6134 118.818 66.3979C131.022 50.4703 128.299 14.6911 94.3418 32.4419L92.3339 32.0941C68.4523 6.58323 46.1763 41.709 64.6928 63.3417L62.0547 65.4073C20.4541 19.8305 -7.2404 71.0701 16.9153 80.6429L16.6519 83.8361C-4.06118 88.2694 4.23401 144.139 50.6479 111.876L52.7769 114.43C29.7996 137.44 49.0565 172.977 78.848 146.964L81.0873 147.013C106.827 171.343 124.927 145.13 113.98 123.43C108.301 112.154 109.27 99.9218 120.06 92.1337C118.629 96.6759 106.325 100.79 116.974 121.923C129.434 146.675 107.529 179.001 79.5778 153.891C50.5126 177.976 28.6283 145.65 44.4959 119.584C2.63906 141.799 -10.6582 92.0423 8.7483 81.8935C-12.9936 66.9143 19.0158 22.4301 55.7995 54.3134C48.6684 30.552 70.9408 2.52931 93.9003 25.7779C134.486 5.53989 136.259 57.9177 116.426 72.1556C116.23 72.3559 116.055 72.5526 115.852 72.7493ZM406.575 122.622L405.219 124.477C403.973 126.234 402.385 127.105 400.42 127.105C398.077 127.105 396.155 125.911 394.656 123.494C393.147 121.087 392.374 118.224 392.31 114.908C392.246 112.038 392.669 109.603 393.581 107.587C394.827 104.924 396.703 103.639 399.245 103.783C401.21 103.846 402.645 104.924 403.553 106.997C404.34 108.634 404.724 110.707 404.724 113.25C404.721 113.485 404.699 113.693 404.692 113.921C405.126 113.914 405.554 113.9 405.97 113.879C406.041 112.962 406.063 112.041 405.995 111.103C405.867 108.504 405.219 105.894 404.044 103.294C402.677 99.9113 400.922 98.2145 398.757 98.2145C393.228 98.2145 390.419 105.012 390.355 118.621C390.355 123.367 391.099 127.857 392.602 132.086C394.364 136.769 396.411 139.112 398.757 139.112C401.043 139.112 403.005 137.229 404.625 133.453C405.928 130.33 406.575 127.4 406.575 124.667V122.622ZM397.244 111.585C397.999 110.612 399.06 110.13 400.42 110.13C401.139 110.13 401.638 110.155 401.89 110.222C401.502 108.142 400.584 107.127 399.16 107.208C398.252 107.26 397.348 108.037 396.472 109.54C395.589 111.044 395.151 112.695 395.151 114.522C395.151 120.054 396.967 122.851 400.619 122.914C401.994 122.914 403.186 122.004 404.212 120.223C403.788 120.206 403.378 120.174 402.987 120.128C402.342 120.848 401.527 121.228 400.523 121.252C399.224 121.319 398.156 120.687 397.348 119.348C396.522 118.01 396.126 116.626 396.126 115.196C396.126 113.759 396.5 112.568 397.244 111.585ZM254.361 81.4298C265.956 80.5726 276.291 79.9368 285.345 79.4836C285.409 80.7869 285.612 83.2495 285.946 86.8924C286.203 90.0786 286.331 92.5903 286.331 94.4065V95.2883C285.541 95.2286 284.665 94.6665 283.693 93.6337C282.319 92.2636 281.211 91.3187 280.368 90.7952C278.669 89.8257 276.626 89.3303 274.205 89.3303H272.261C271.471 91.677 271.076 94.7649 271.076 98.608C271.076 102.444 271.346 105.247 271.862 107.011C272.336 107.26 272.827 107.39 273.343 107.39C275.704 107.39 277.833 106.582 279.737 104.959C282.365 102.736 284.02 101.503 284.665 101.243C284.604 103.129 284.604 105.504 284.665 108.374V115.491C284.665 115.565 284.572 116.766 284.376 119.102C281.176 116.436 278.118 115.094 275.188 115.094C272.514 115.094 271.175 116.534 271.175 119.401C271.175 124.537 271.346 127.99 271.663 129.754C272.514 134.24 274.443 136.484 277.427 136.484C281.468 136.484 285.217 132.086 288.681 123.3C288.88 124.158 288.965 125.025 288.965 125.946C288.965 126.525 288.581 133.063 287.791 145.558C287.737 146.531 287.467 147.118 287.018 147.315C274.312 147.828 264.368 147.926 257.198 147.61L254.952 147.508C260.288 133.189 262.962 120.054 262.962 108.082C262.962 101.826 262.41 97.0412 261.299 93.725C260.313 90.5985 258.003 86.5059 254.361 81.4298ZM300.18 137.458C301.939 133.421 303.662 129.455 305.367 125.549C306.008 124.119 306.649 122.745 307.307 121.449C308.283 119.303 308.838 117.732 308.966 116.766C308.176 112.337 305.324 105.894 300.372 97.4452C299.66 96.2649 298.45 94.6419 296.762 92.5517C294.555 89.8854 293.02 88.5189 292.177 88.4556C296.207 87.7425 302.131 87.3491 309.938 87.2823C313.132 87.2331 315.111 87.2331 315.891 87.2823C316.614 87.3491 316.977 87.609 316.977 88.0727C316.977 88.705 316.518 89.1723 315.603 89.4357C313.132 90.2156 311.896 92.8503 311.896 97.3363C311.896 98.7134 312.384 100.586 313.353 103.003C314.385 105.599 315.571 107.654 316.874 109.14C318.504 108.24 320.188 104.879 321.947 99.0963C323.638 93.6337 324.314 89.9873 323.99 88.1676C325.165 87.5809 327.479 87.1523 330.926 86.8924C333.663 86.7027 336.326 86.5762 338.925 86.5059C338.537 87.7425 337.401 89.232 335.504 90.999C333.233 93.2683 331.833 94.8035 331.317 95.5834C329.494 98.1829 327.344 102.307 324.873 107.97C323.574 111.233 322.239 114.448 320.875 117.638C321.651 121.15 323.666 126.286 326.924 133.063C330.762 141.195 334.009 145.853 336.686 147.027C328.807 148.256 321.363 148.875 314.339 148.875C315.382 146.531 315.891 143.928 315.891 141.065C315.891 137.419 314.794 132.438 312.587 126.128C311.996 127.042 311.309 128.313 310.519 129.947C309.614 131.886 308.742 133.808 307.895 135.694C306.852 138.097 306.332 140.191 306.332 141.94C306.332 143.377 306.624 144.75 307.211 146.047C307.339 146.3 307.339 146.556 307.211 146.826C307.08 147.027 306.809 147.108 306.424 147.069C306.044 147.041 305.221 147.09 303.989 147.22C302.547 147.417 301.746 147.508 301.543 147.508C298.489 147.508 295.591 147.905 292.86 148.678C291.952 148.485 291.757 148.063 292.273 147.417C295.47 144.944 298.104 141.624 300.18 137.458ZM342.646 147.508C344.337 145.629 345.736 141.364 346.843 134.724C347.708 129.322 348.121 124.249 348.121 119.492V110.022C348.121 103.326 346.686 96.7215 343.828 90.2156C343.625 89.7554 343.329 89.1371 342.938 88.3608C342.802 88.1676 342.546 87.8268 342.161 87.3842C344.237 87.4579 347.199 87.349 351.048 87.0821C355.167 86.8256 358.122 86.7027 359.952 86.7027C366.73 86.7027 371.223 88.2238 373.445 91.2906C375.139 93.6337 376.051 98.1829 376.172 104.959C376.246 107.875 375.296 110.935 373.338 114.139C371.18 117.641 368.528 119.858 365.327 120.768C363.572 121.277 361.803 121.449 360.931 121.347C360.931 121.347 360.044 121.252 359.624 121.319C359.2 121.379 358.584 121.776 358.374 122.102C358.374 122.102 358.179 122.422 357.993 123.402C357.798 124.372 357.609 126.459 357.609 128.665C357.609 135.968 359.175 142.362 361.247 146.057C361.247 146.057 362.298 147.905 362.006 148C361.714 148.091 359.029 148.256 354.273 148.386C348.036 148.593 343.888 148.91 342.87 149.138C342.87 149.138 341.862 149.359 341.83 149.335C341.802 149.296 341.763 149.201 341.763 149.138C341.763 149.138 341.763 149.075 341.862 148.878C341.962 148.681 342.258 148.151 342.646 147.508ZM358.791 113.735C361.134 113.541 362.928 112.375 364.149 110.222C365.256 108.462 365.812 106.449 365.812 104.162C365.812 102.082 365.327 100.294 364.338 98.8012C363.177 96.9815 361.543 96.0646 359.464 96.0646C358.673 96.0646 357.833 96.156 356.918 96.3597C356.797 97.9827 356.719 99.0647 356.719 99.5846C356.719 105.181 357.417 109.892 358.791 113.735Z" fill="#15A745"/>
</svg>