<svg width="434" height="260" viewBox="0 0 434 260" fill="none" xmlns="http://www.w3.org/2000/svg">
<g clip-path="url(#clip0_1003_103)">
<path d="M98.1479 0V44.8035H89.0192V26.551H79.8905V44.8035H70.7424V0H79.8711V17.9234H88.9998V0H98.1479Z" fill="white"/>
<path d="M130.263 36.1662V44.8035H106.298V0H129.284V8.63729H115.32V17.9234H128.034V26.2314H115.32V36.3309H130.156V36.1662H130.263Z" fill="white"/>
<path d="M170.373 36.3309V52.4532H161.409V44.8035H142.028V52.4532H133.054V36.3309H135.826C139.702 32.0897 140.884 24.7112 141.049 18.7367L141.843 0.164612H166.138V36.3309H170.373ZM157.165 8.47268H150.323L149.829 21.1769C149.832 26.3669 148.663 31.4907 146.408 36.1662H157.165V8.47268Z" fill="white"/>
<path d="M199.067 36.1662V44.8035H175.402V0H198.389V8.63729H184.395V17.9234H197.11V26.2314H184.395V36.3309H199.067V36.1662Z" fill="white"/>
<path d="M201.674 37.4735C204.281 37.4735 205.754 36.5052 206.897 30.7921C207.711 26.2314 208.031 18.9013 209.01 0.164612H234.119V44.9585H224.99V8.47268H217.654C217.005 20.3635 216.346 27.8388 215.532 32.9031C213.739 43.6609 209.01 45.2877 201.674 45.2877V37.4735Z" fill="white"/>
<path d="M246.998 28.3423C243.121 26.0668 240.805 21.5061 240.805 15.3089C240.805 5.70333 246.019 0.164612 254.993 0.164612H267.872V44.9585H258.743V30.4339H255.477L248.306 44.9585H238.392L246.998 28.3423ZM258.898 21.5061V8.63729H255.148C251.892 8.63729 250.302 10.9128 250.302 15.154C250.302 19.3952 252.095 21.6707 255.148 21.6707L258.898 21.5061Z" fill="white"/>
<path d="M98.3126 87.4768C98.3126 96.9275 92.7695 102.631 83.6408 102.631H79.7645V116.971H70.5971V72.3325H83.6408C92.9342 72.3325 98.3126 77.8712 98.3126 87.4768ZM89.0192 87.4768C89.0192 83.0807 87.081 80.9698 83.4761 80.9698H79.7258V93.9935H83.4761C87.0616 94.1581 89.0192 91.718 89.0192 87.4768Z" fill="white"/>
<path d="M103.206 102.64V86.8281C103.206 77.2225 108.585 71.5191 117.743 71.5191C126.9 71.5191 132.279 77.2225 132.279 86.8281V102.466C132.279 112.081 126.9 117.785 117.743 117.785C108.585 117.949 103.206 112.246 103.206 102.64ZM122.762 102.64V86.8281C122.762 82.5966 120.97 80.3114 117.713 80.3114C114.293 80.3114 112.655 82.5966 112.655 86.8281V102.466C112.655 106.707 114.448 108.983 117.713 108.983C120.97 109.148 122.762 106.872 122.762 102.64Z" fill="white"/>
<path d="M137.928 103.444V86.0147C137.928 76.564 142.987 71.4901 151.786 71.4901C160.75 71.4901 165.644 76.535 165.973 86.0147H156.99C156.67 81.9381 155.197 80.3114 151.776 80.3114C149.005 80.3114 147.377 82.1027 147.377 86.0147V103.28C147.377 107.153 148.84 108.983 151.776 108.983C155.362 108.983 156.835 107.356 157.155 103.28H166.283C166.128 112.73 160.905 117.804 151.941 117.804C143.142 117.949 137.928 112.895 137.928 103.444Z" fill="white"/>
<path d="M170.557 103.444V86.0147C170.557 76.564 175.606 71.4901 184.415 71.4901C193.379 71.4901 198.273 76.535 198.602 86.0147H189.464C189.144 81.9381 187.671 80.3114 184.25 80.3114C181.479 80.3114 179.851 82.1027 179.851 86.0147V103.28C179.851 107.153 181.314 108.983 184.25 108.983C187.836 108.983 189.309 107.356 189.629 103.28H198.757C198.602 112.73 193.379 117.804 184.415 117.804C175.587 117.949 170.557 112.895 170.557 103.444Z" fill="white"/>
<path d="M204.475 72.3325H213.284V82.5965C213.284 86.6634 212.789 94.3227 212.14 100.026L212.305 100.191C213.448 97.4213 214.243 94.3227 215.561 91.718L224.04 72.3519H232.849V117.165H224.04V108.044C224.04 103.202 224.37 94.6907 225.009 89.152L224.845 88.9874C223.546 92.5701 222.238 96.3174 220.775 99.9002L213.255 117.165H204.475V72.3325Z" fill="white"/>
<path d="M241.135 72.3325H249.934V82.5966C249.934 86.6634 249.449 94.3227 248.79 100.026L248.955 100.191C250.099 97.4213 250.893 94.3227 252.221 91.718L260.7 72.3519H269.5V117.165H260.681V108.044C260.681 103.202 261.001 94.6907 261.65 89.152L261.495 88.9874C260.187 92.5701 258.879 96.3174 257.415 99.9002L250.099 117.165H241.3L241.144 72.3712L241.135 72.3325ZM247.492 59.9479H253.035C253.035 60.6387 253.31 61.3012 253.799 61.7897C254.287 62.2782 254.95 62.5526 255.642 62.5526C256.333 62.5526 256.996 62.2782 257.485 61.7897C257.974 61.3012 258.249 60.6387 258.249 59.9479H263.792C263.627 65.167 260.041 67.9364 255.642 67.9364C251.242 67.7815 247.657 64.8765 247.492 59.9479Z" fill="white"/>
<path d="M276.671 103.444V86.0147C276.671 76.564 281.729 71.4901 290.529 71.4901C299.502 71.4901 304.386 76.535 304.716 86.0147H295.568C295.238 81.9381 293.775 80.3114 290.344 80.3114C287.573 80.3114 285.945 82.1027 285.945 86.0147V103.28C285.945 107.153 287.418 108.983 290.344 108.983C293.775 108.983 295.403 107.356 295.732 103.28H304.861C304.696 112.73 299.483 117.804 290.325 117.804C281.894 117.949 276.671 112.895 276.671 103.444Z" fill="white"/>
<path d="M321.994 100.191L319.552 104.258V117.165H310.588V72.3325H319.552V89.4328L321.83 84.5913L328.032 72.5358H338.304L326.888 92.0472L340.145 117.165H329.873L321.994 100.191Z" fill="white"/>
<path d="M342.374 102.64V86.8281C342.374 77.2225 347.752 71.5191 356.91 71.5191C366.068 71.5191 371.446 77.2225 371.446 86.8281V102.466C371.446 112.081 366.068 117.785 356.91 117.785C347.898 117.949 342.374 112.246 342.374 102.64ZM361.94 102.64V86.8281C361.94 82.5966 360.147 80.3114 356.891 80.3114C353.46 80.3114 351.832 82.5966 351.832 86.8281V102.466C351.832 106.707 353.625 108.983 356.891 108.983C360.312 109.148 361.94 106.872 361.94 102.64Z" fill="white"/>
<path d="M401.071 80.9698H387.504V117.165H378.365V72.3325H400.906V80.9698H401.071Z" fill="white"/>
<path d="M404.986 102.64V86.8281C404.986 77.2225 410.364 71.5191 419.522 71.5191C428.68 71.5191 434.058 77.2225 434.058 86.8281V102.466C434.058 112.081 428.68 117.785 419.522 117.785C410.529 117.949 404.986 112.246 404.986 102.64ZM424.707 102.64V86.8281C424.707 82.5966 422.914 80.3114 419.658 80.3114C416.237 80.3114 414.599 82.5966 414.599 86.8281V102.466C414.599 106.707 416.392 108.983 419.658 108.983C422.914 109.148 424.707 106.872 424.707 102.64Z" fill="white"/>
<path d="M98.3126 159.974C98.3126 169.425 92.7695 175.128 83.6408 175.128H79.7645V189.459H70.5971V144.5H83.6408C92.9342 144.5 98.3126 150.204 98.3126 159.974ZM89.0192 159.974C89.0192 155.578 87.081 153.457 83.4761 153.457H79.7258V166.491H83.4761C87.0616 166.491 89.0192 164.215 89.0192 159.974Z" fill="white"/>
<path d="M103.691 144.5H112.5V154.764C112.5 158.996 112.006 166.491 111.356 172.194L111.521 172.359C112.655 169.589 113.459 166.491 114.777 163.886L123.257 144.52H132.056V189.314H123.257V180.192C123.257 175.147 123.586 166.839 124.226 161.301V161.136C122.917 164.719 121.619 168.466 120.146 172.049L112.645 189.314H103.846L103.691 144.5Z" fill="white"/>
<path d="M164.345 153.138H155.536V189.459H146.243V153.138H137.444V144.5H164.345V153.138Z" fill="white"/>
<path d="M192.846 180.831V189.459H169.2V144.5H192.187V153.138H178.203V162.414H190.908V170.732H178.203V180.667H192.846V180.831Z" fill="white"/>
<path d="M199.397 144.5H208.196V154.764C208.196 158.996 207.711 166.491 207.052 172.194L207.217 172.359C208.361 169.589 209.155 166.491 210.483 163.886L218.962 144.52H227.732V189.314H219.011V180.192C219.018 173.883 219.341 167.578 219.98 161.301L219.815 161.136C218.507 164.719 217.208 168.466 215.735 172.049L208.235 189.314H199.435V144.5H199.397ZM205.589 132.116H211.132C211.132 132.807 211.407 133.469 211.896 133.958C212.385 134.446 213.048 134.72 213.739 134.72C214.43 134.72 215.093 134.446 215.582 133.958C216.071 133.469 216.346 132.807 216.346 132.116H221.918C221.763 137.335 218.168 140.104 213.768 140.104C212.697 140.152 211.627 139.98 210.625 139.598C209.623 139.216 208.711 138.632 207.944 137.883C207.177 137.134 206.572 136.236 206.167 135.244C205.762 134.252 205.565 133.187 205.589 132.116Z" fill="white"/>
<path d="M231.996 181.964C234.613 181.964 236.076 180.996 237.22 175.293C238.034 170.732 238.363 163.392 239.342 144.665H264.606V189.459H255.477V153.138H248.141C247.492 165.028 246.833 172.504 246.019 177.568C244.226 188.316 239.497 189.953 232.161 189.953L231.996 181.964Z" fill="white"/>
<path d="M289.395 181.964H279.937L278.464 189.294H269.015L279.772 144.5H289.395L300.151 189.294H290.722L289.395 181.964ZM287.592 173.327L286.623 168.272C285.964 165.019 285.315 159.635 284.821 156.052H284.501C284.007 159.635 283.357 165.174 282.708 168.272L281.739 173.327H287.592Z" fill="white"/>
<path d="M215.367 203.47V245.824H14.1873V44.8035H56.4098V30.6275H0V260H229.39V203.47H215.367Z" fill="white"/>
</g>
<defs>
<clipPath id="clip0_1003_103">
<rect width="434" height="260" fill="white"/>
</clipPath>
</defs>
</svg>
