<svg width="267" height="119" viewBox="0 0 267 119" fill="none" xmlns="http://www.w3.org/2000/svg">
<path d="M139.303 76.453C139.303 63.8578 150.705 54.4163 166.023 54.3471C169.62 54.32 173.186 54.8837 176.511 56.0048C179.837 57.1259 182.853 58.7815 185.381 60.8736C187.909 62.9656 189.897 65.4515 191.228 68.1837C192.559 70.9159 193.206 73.8389 193.13 76.7793C192.985 89.2559 181.172 99.073 166.313 99.073C151.454 99.073 139.315 88.9494 139.303 76.453ZM151.128 76.5321C151.128 84.0161 157.427 89.4437 166.144 89.3844C170.185 89.2802 174.017 87.891 176.825 85.5123C179.632 83.1336 181.194 79.9531 181.179 76.6472C181.163 73.3413 179.57 70.1708 176.74 67.81C173.91 65.4493 170.065 64.0846 166.023 64.0061C157.415 64.016 151.176 69.2953 151.128 76.5321Z" fill="#1D1E1C"/>
<path d="M220.66 48.5344V3.93701C229.836 4.48076 238.904 4.2336 247.537 5.69678C260.377 7.89156 267.135 16.5718 266.47 28.0301C266.218 32.8461 263.881 37.4323 259.878 40.9705C255.874 44.5087 250.463 46.7689 244.611 47.348C236.921 48.2082 229.075 48.1192 220.66 48.5344ZM231.469 39.2017C242.265 40.5166 249.604 38.5986 253.231 33.6258C254.956 31.2741 255.803 28.5614 255.668 25.8214C255.533 23.0813 254.421 20.4333 252.47 18.203C247.053 12.4096 239.339 12.8051 231.42 12.8644L231.469 39.2017Z" fill="#1D1E1C"/>
<path d="M199.973 98.2033V55.0196C210.129 55.1185 220.261 53.685 230.03 56.7794C241.431 60.3978 247.247 69.4537 245.469 80.3584C243.885 90.047 234.37 97.1652 221.022 98.1538C214.252 98.5888 207.396 98.2033 199.973 98.2033ZM210.854 89.9086C219.318 90.393 227.237 90.3733 232.484 83.9768C234.22 81.7147 235.113 79.0886 235.055 76.4185C234.997 73.7485 233.99 71.1499 232.158 68.9396C226.814 62.9287 219.112 62.8694 210.854 63.3934V89.9086Z" fill="#1D1E1C"/>
<path d="M180.531 47.9608V4.70801H190.929V39.3993H214.01V47.9608H180.531Z" fill="#1D1E1C"/>
<path d="M155.407 118.45V107.052H157.511L160.014 115.119C160.244 115.87 160.413 116.434 160.51 116.809C160.631 116.394 160.824 115.821 161.078 114.98L163.605 107.071H165.491V118.47H164.137V108.93L161.066 118.47H159.857L156.798 108.742V118.45H155.407Z" fill="#1D1E1C"/>
<path d="M169.239 112.894C169.13 111.33 169.625 109.777 170.654 108.455C171.044 107.959 171.581 107.551 172.215 107.27C172.849 106.988 173.559 106.841 174.281 106.844C175.24 106.843 176.171 107.112 176.916 107.605C177.741 108.153 178.361 108.879 178.706 109.701C179.134 110.684 179.343 111.722 179.322 112.766C179.343 113.825 179.121 114.877 178.67 115.87C178.319 116.692 177.68 117.411 176.832 117.936C176.095 118.394 175.194 118.64 174.269 118.638C173.295 118.644 172.35 118.371 171.597 117.867C170.776 117.306 170.161 116.57 169.819 115.742C169.424 114.827 169.227 113.864 169.239 112.894ZM170.678 112.894C170.607 114.036 170.965 115.167 171.705 116.137C171.975 116.501 172.354 116.803 172.807 117.012C173.261 117.221 173.772 117.331 174.293 117.331C174.813 117.331 175.325 117.221 175.778 117.012C176.231 116.803 176.611 116.501 176.88 116.137C177.639 115.115 177.997 113.929 177.908 112.736C177.927 111.911 177.78 111.09 177.473 110.304C177.236 109.683 176.792 109.128 176.191 108.702C175.669 108.329 174.998 108.125 174.305 108.129C173.804 108.135 173.312 108.237 172.869 108.428C172.425 108.618 172.043 108.892 171.754 109.226C170.909 110.329 170.531 111.628 170.678 112.924V112.894Z" fill="#1D1E1C"/>
<path d="M182.587 114.773L183.917 114.654C183.952 115.14 184.099 115.617 184.352 116.058C184.592 116.431 184.963 116.737 185.416 116.938C185.877 117.149 186.393 117.267 186.92 117.282C187.448 117.298 187.973 117.21 188.451 117.027C188.835 116.871 189.151 116.622 189.358 116.315C189.562 116.013 189.666 115.672 189.66 115.326C189.68 114.981 189.579 114.638 189.37 114.338C189.14 114.041 188.807 113.807 188.414 113.665C187.806 113.445 187.18 113.26 186.54 113.112C185.824 112.949 185.137 112.71 184.497 112.4C184.011 112.134 183.622 111.765 183.373 111.332C183.114 110.892 182.986 110.407 182.998 109.919C182.991 109.36 183.144 108.808 183.445 108.307C183.729 107.822 184.195 107.423 184.775 107.17C185.367 106.903 186.034 106.767 186.71 106.775C187.434 106.765 188.149 106.904 188.789 107.18C189.388 107.459 189.868 107.879 190.168 108.386C190.503 108.947 190.68 109.562 190.688 110.185L189.345 110.294C189.33 109.697 189.075 109.12 188.62 108.653C188.375 108.462 188.084 108.314 187.766 108.221C187.447 108.127 187.108 108.089 186.77 108.109C186.437 108.085 186.101 108.117 185.783 108.202C185.466 108.287 185.172 108.423 184.92 108.604C184.538 108.93 184.329 109.368 184.34 109.82C184.333 110.178 184.479 110.527 184.751 110.808C185.366 111.214 186.092 111.492 186.867 111.619C187.675 111.792 188.458 112.037 189.2 112.351C189.78 112.623 190.253 113.024 190.567 113.507C190.866 114.012 191.015 114.568 191.002 115.129C191.006 115.725 190.84 116.314 190.518 116.849C190.215 117.364 189.737 117.797 189.14 118.095C188.522 118.395 187.815 118.549 187.097 118.539C186.257 118.565 185.424 118.412 184.679 118.095C184.019 117.775 183.489 117.304 183.155 116.74C182.802 116.123 182.609 115.454 182.587 114.773Z" fill="#1D1E1C"/>
<path d="M202.379 114.456L203.769 114.832C203.588 115.881 203.043 116.866 202.198 117.669C201.841 117.986 201.407 118.238 200.924 118.408C200.441 118.578 199.919 118.664 199.393 118.658C198.388 118.696 197.402 118.428 196.624 117.907C195.843 117.324 195.277 116.574 194.992 115.742C194.612 114.753 194.424 113.723 194.436 112.687C194.408 111.626 194.621 110.57 195.064 109.573C195.415 108.786 196.036 108.099 196.854 107.595C197.593 107.142 198.493 106.899 199.417 106.903C199.911 106.895 200.402 106.968 200.86 107.117C201.319 107.267 201.737 107.49 202.089 107.773C202.871 108.453 203.393 109.305 203.588 110.225L202.222 110.571C202.07 109.899 201.698 109.274 201.146 108.762C200.914 108.577 200.64 108.432 200.339 108.335C200.038 108.238 199.716 108.192 199.393 108.198C198.639 108.182 197.906 108.405 197.349 108.821C196.781 109.286 196.384 109.872 196.201 110.512C195.982 111.23 195.873 111.967 195.874 112.707C195.859 113.564 195.989 114.419 196.261 115.247C196.457 115.875 196.878 116.439 197.47 116.869C197.979 117.21 198.614 117.398 199.272 117.403C199.648 117.407 200.02 117.344 200.363 117.217C200.705 117.091 201.01 116.904 201.255 116.671C201.886 116.038 202.277 115.268 202.379 114.456Z" fill="#1D1E1C"/>
<path d="M206.998 112.894C206.885 111.331 207.375 109.778 208.4 108.455C208.791 107.96 209.328 107.552 209.962 107.271C210.596 106.989 211.306 106.842 212.027 106.844C212.987 106.84 213.919 107.109 214.663 107.605C215.491 108.152 216.115 108.878 216.464 109.701C216.893 110.684 217.102 111.722 217.081 112.766C217.101 113.825 216.88 114.877 216.428 115.87C216.073 116.69 215.435 117.408 214.59 117.936C213.852 118.391 212.952 118.638 212.027 118.638C211.053 118.646 210.107 118.373 209.355 117.867C208.539 117.311 207.924 116.583 207.578 115.761C207.174 114.842 206.977 113.871 206.998 112.894ZM208.436 112.894C208.359 114.036 208.718 115.17 209.464 116.137C209.734 116.498 210.112 116.796 210.563 117.004C211.014 117.212 211.522 117.321 212.039 117.323C212.561 117.32 213.073 117.209 213.528 116.999C213.982 116.79 214.365 116.49 214.639 116.127C215.388 115.103 215.742 113.918 215.654 112.726C215.674 111.901 215.527 111.08 215.219 110.294C215.004 109.68 214.585 109.125 214.01 108.693C213.486 108.322 212.816 108.118 212.124 108.119C211.621 108.124 211.127 108.226 210.682 108.417C210.236 108.607 209.852 108.881 209.561 109.217C208.7 110.319 208.306 111.621 208.436 112.924V112.894Z" fill="#1D1E1C"/>
<path d="M222.667 118.45L219.862 107.052H221.301L222.909 114.526C223.078 115.307 223.223 116.078 223.356 116.849C223.622 115.636 223.779 114.934 223.827 114.743L225.834 107.052H227.527L229.038 112.815C229.401 114.147 229.675 115.493 229.861 116.849C229.994 116.137 230.175 115.307 230.393 114.377L232.049 107.052H233.451L230.55 118.45H229.208L226.983 109.76C226.79 109.039 226.681 108.594 226.645 108.426C226.536 108.95 226.427 109.414 226.342 109.76L224.093 118.45H222.667Z" fill="#1D1E1C"/>
<path d="M52.5421 63.0768V55.1677H19.8979V98.292H30.9849V82.0488L31.1542 80.6251H49.6283V72.716H31.1179V63.0768H52.5421Z" fill="#1D1E1C"/>
<path d="M135.241 48.0894V3.66992H155.408C160.486 3.66992 164.173 4.07526 166.47 4.86617C168.857 5.72365 170.809 7.2288 171.996 9.1272C173.417 11.2741 174.134 13.6858 174.075 16.1267C174.216 19.0918 173.106 22.0062 170.932 24.3819C168.559 26.6833 165.196 28.152 161.537 28.4847C163.467 29.5115 165.199 30.7677 166.676 32.2119C168.732 34.4881 170.556 36.8986 172.129 39.419L177.932 48.0894H166.47L159.543 38.4205C158.02 36.1643 156.332 33.9853 154.489 31.8955C153.731 31.0943 152.742 30.4591 151.611 30.0467C150.048 29.6469 148.411 29.4762 146.775 29.5425H144.828V48.0894H135.241ZM144.816 22.454H151.962C156.568 22.454 159.434 22.2761 160.582 21.9103C161.716 21.5566 162.664 20.8929 163.266 20.0319C163.959 19.0153 164.298 17.863 164.246 16.7002C164.317 15.4116 163.866 14.1397 162.964 13.0817C162.073 12.1423 160.774 11.5192 159.337 11.3417C157.009 11.1883 154.672 11.1355 152.337 11.1836H144.853L144.816 22.454Z" fill="#1D1E1C"/>
<path d="M13.6955 47.7433L0.831299 3.66992H11.9787L20.1035 33.942L29.9572 3.66992H42.894L52.3487 34.4561L60.6185 3.66992H71.5725L58.4906 47.7433H46.9443L36.2079 14.7921L25.5079 47.7433H13.6955Z" fill="#1D1E1C"/>
<path d="M103.854 0.0908216C96.9179 0.0900945 90.0199 0.929664 83.3848 2.58219L79.2378 16.5318C86.2284 13.6982 93.8717 12.1032 101.668 11.851C109.464 11.5989 117.238 12.6953 124.48 15.0687V2.61184C117.796 0.939265 110.844 0.0896136 103.854 0.0908216Z" fill="#1D1E1C"/>
<path d="M136.607 94.8222C125.561 101.396 111.947 104.424 98.351 103.331C84.7547 102.237 72.1231 97.0983 62.8554 88.8904H44.7197C50.0188 95.6245 56.9812 101.378 65.1602 105.782C73.3392 110.186 82.554 113.143 92.213 114.463C101.872 115.783 111.762 115.438 121.248 113.448C130.734 111.458 139.606 107.868 147.295 102.909C142.903 101.054 139.209 98.2591 136.607 94.8222Z" fill="#1D1E1C"/>
</svg>
