<svg width="143" height="22" fill="none" xmlns="http://www.w3.org/2000/svg"><path d="M26.464 10.593h2.816v.943h-2.816v2.912h-.95v-2.912H22.71v-.943h2.803V7.667h.95v2.926zM31.96 16l4.142-8.948h-5.448V6.006h6.652v.909L33.218 16H31.96zm10.26-3.835c0-1.208.176-2.338.527-3.39a8.478 8.478 0 011.531-2.77h1.108a9.7 9.7 0 00-1.484 2.9 10.85 10.85 0 00-.492 3.246c0 1.094.169 2.163.506 3.206a9.954 9.954 0 001.456 2.858h-1.094a8.055 8.055 0 01-1.53-2.714 10.319 10.319 0 01-.527-3.336zm11.307 1.538h-1.483V16h-1.087v-2.297h-4.86v-.991l4.744-6.76h1.203v6.719h1.483v1.032zm-2.57-1.032V9.349c0-.652.023-1.388.068-2.208h-.054c-.219.437-.424.8-.615 1.087L47.23 12.67h3.726zm10.11-2.4c0 3.91-1.513 5.866-4.539 5.866-.528 0-.948-.046-1.258-.137v-.977c.365.118.78.177 1.245.177 1.093 0 1.918-.337 2.474-1.011.56-.68.866-1.719.916-3.118h-.082c-.25.379-.583.668-.998.869a3.241 3.241 0 01-1.401.293c-.884 0-1.586-.264-2.106-.793-.52-.528-.779-1.266-.779-2.214 0-1.04.29-1.86.868-2.461.584-.602 1.35-.903 2.297-.903.68 0 1.272.176 1.777.527.51.346.903.854 1.176 1.524.274.665.41 1.452.41 2.358zm-3.363-3.438c-.652 0-1.155.21-1.51.629-.356.42-.534 1.003-.534 1.75 0 .656.164 1.173.492 1.552.328.373.828.56 1.497.56.415 0 .796-.084 1.142-.253.35-.168.627-.399.827-.69.2-.292.3-.597.3-.916 0-.479-.093-.92-.28-1.326a2.302 2.302 0 00-.785-.957 1.955 1.955 0 00-1.149-.349zm7.93 3.063c1.052 0 1.88.262 2.481.786.606.52.91 1.232.91 2.14 0 1.034-.331 1.845-.992 2.433-.656.588-1.563.882-2.72.882-1.126 0-1.985-.18-2.578-.54v-1.094c.32.205.716.367 1.19.485.474.114.94.171 1.401.171.802 0 1.424-.189 1.866-.567.447-.379.67-.925.67-1.64 0-1.395-.854-2.093-2.563-2.093-.433 0-1.012.066-1.737.199l-.587-.376.376-4.676h4.97v1.046h-4l-.253 3a7.967 7.967 0 011.566-.156zm7.786 2.269c0 1.199-.178 2.315-.533 3.35a7.965 7.965 0 01-1.525 2.7H70.27a9.856 9.856 0 001.456-2.85 10.43 10.43 0 00.506-3.214c0-1.112-.167-2.194-.5-3.247a9.577 9.577 0 00-1.476-2.898h1.107a8.382 8.382 0 011.532 2.782c.35 1.053.526 2.178.526 3.377zm8.19-6.303c.91 0 1.633.212 2.166.636.534.424.8 1.01.8 1.757 0 .492-.152.941-.458 1.347-.305.405-.793.774-1.463 1.107.811.387 1.388.795 1.73 1.224.342.423.512.916.512 1.476 0 .83-.289 1.493-.868 1.99-.578.492-1.371.738-2.379.738-1.066 0-1.886-.233-2.46-.697-.575-.47-.862-1.133-.862-1.99 0-1.144.697-2.035 2.092-2.673-.629-.355-1.08-.738-1.354-1.148a2.467 2.467 0 01-.41-1.388c0-.724.267-1.3.8-1.73.538-.432 1.256-.649 2.153-.649zm-2.16 7.615c0 .547.188.973.567 1.279.382.305.918.458 1.606.458.68 0 1.208-.16 1.586-.479.378-.319.567-.756.567-1.312 0-.442-.177-.834-.533-1.176-.355-.346-.975-.681-1.86-1.005-.678.292-1.17.615-1.476.97-.305.352-.458.773-.458 1.265zm2.146-6.692c-.57 0-1.017.137-1.34.41-.324.274-.486.638-.486 1.094 0 .42.135.78.404 1.08.269.3.765.602 1.49.902.652-.273 1.112-.567 1.38-.881.274-.315.411-.682.411-1.1 0-.461-.166-.826-.499-1.095-.328-.273-.782-.41-1.36-.41zm8.025-.923c.912 0 1.634.212 2.167.636.533.424.8 1.01.8 1.757 0 .492-.153.941-.458 1.347-.305.405-.793.774-1.463 1.107.811.387 1.388.795 1.73 1.224.341.423.512.916.512 1.476 0 .83-.29 1.493-.868 1.99-.579.492-1.372.738-2.379.738-1.066 0-1.887-.233-2.46-.697-.575-.47-.862-1.133-.862-1.99 0-1.144.697-2.035 2.092-2.673-.63-.355-1.08-.738-1.354-1.148a2.467 2.467 0 01-.41-1.388c0-.724.267-1.3.8-1.73.537-.432 1.255-.649 2.153-.649zm-2.16 7.615c0 .547.19.973.567 1.279.383.305.919.458 1.607.458.679 0 1.207-.16 1.586-.479.378-.319.567-.756.567-1.312 0-.442-.178-.834-.533-1.176-.356-.346-.975-.681-1.86-1.005-.678.292-1.17.615-1.476.97-.305.352-.458.773-.458 1.265zm2.146-6.692c-.57 0-1.016.137-1.34.41-.323.274-.485.638-.485 1.094 0 .42.135.78.404 1.08.268.3.765.602 1.49.902.651-.273 1.112-.567 1.38-.881.274-.315.41-.682.41-1.1 0-.461-.165-.826-.498-1.095-.328-.273-.782-.41-1.36-.41zm7.841 3.11c1.053 0 1.88.263 2.482.787.606.52.909 1.232.909 2.14 0 1.034-.331 1.845-.991 2.433-.657.588-1.564.882-2.721.882-1.126 0-1.985-.18-2.577-.54v-1.094c.319.205.715.367 1.19.485.473.114.94.171 1.4.171.803 0 1.425-.189 1.867-.567.447-.379.67-.925.67-1.64 0-1.395-.855-2.093-2.564-2.093-.433 0-1.011.066-1.736.199l-.588-.376.376-4.676h4.97v1.046h-4l-.252 3a7.968 7.968 0 011.565-.156zm4.779 2.872v-1.04h3.356v1.04h-3.356zm11.662.936h-1.484V16h-1.087v-2.297h-4.86v-.991l4.744-6.76h1.203v6.719h1.484v1.032zm-2.571-1.032V9.349c0-.652.023-1.388.069-2.208h-.055c-.219.437-.424.8-.615 1.087l-3.124 4.443h3.725zm6.665-2.775c1.053 0 1.88.262 2.482.786.606.52.909 1.232.909 2.14 0 1.034-.33 1.845-.991 2.433-.656.588-1.563.882-2.721.882-1.126 0-1.985-.18-2.577-.54v-1.094c.319.205.715.367 1.189.485.474.114.941.171 1.402.171.802 0 1.424-.189 1.866-.567.447-.379.67-.925.67-1.64 0-1.395-.855-2.093-2.564-2.093-.433 0-1.011.066-1.736.199l-.588-.376.376-4.676h4.97v1.046h-3.999l-.253 3a7.967 7.967 0 011.565-.156zm4.779 2.87v-1.039h3.356v1.04h-3.356zm11.662.937h-1.484V16h-1.086v-2.297h-4.861v-.991l4.744-6.76h1.203v6.719h1.484v1.032zm-2.57-1.032V9.349c0-.652.022-1.388.068-2.208h-.055c-.219.437-.424.8-.615 1.087l-3.124 4.443h3.726zM136.659 16l4.143-8.948h-5.448V6.006h6.651v.909L137.917 16h-1.258zM18.343 14.098a10.49 10.49 0 01-3.236-.513.896.896 0 00-.926.22l-1.44 1.806c-2.593-1.238-5.023-3.575-6.315-6.261l1.787-1.522a.935.935 0 00.22-.935 10.223 10.223 0 01-.513-3.235.916.916 0 00-.907-.908H3.84c-.495 0-1.091.22-1.091.908 0 8.515 7.086 15.592 15.593 15.592.65 0 .907-.578.907-1.082v-3.162a.916.916 0 00-.907-.908z" fill="currentcolor"/></svg>