<svg width="42" height="38" viewBox="0 0 42 38" fill="none" xmlns="http://www.w3.org/2000/svg">
<path d="M15 20.5C16.1046 20.5 17 21.3954 17 22.5V35.5C17 36.6046 16.1046 37.5 15 37.5H2C0.895431 37.5 4.02666e-09 36.6046 0 35.5V22.5C0 21.3954 0.895431 20.5 2 20.5H15ZM34 20.5C35.1046 20.5 36 21.3954 36 22.5V35.5C36 36.6046 35.1046 37.5 34 37.5H21C19.8954 37.5 19 36.6046 19 35.5V22.5C19 21.3954 19.8954 20.5 21 20.5H34ZM15 1.5C16.1046 1.5 17 2.39543 17 3.5V16.5C17 17.6046 16.1046 18.5 15 18.5H2C0.895431 18.5 4.02666e-09 17.6046 0 16.5V3.5C0 2.39543 0.895431 1.5 2 1.5H15ZM34 1.5C34.6093 1.5 35.1537 1.77345 35.5205 2.20312L33.4346 4.1084C33.0711 3.73376 32.5632 3.5 32 3.5H23C21.8954 3.5 21 4.39543 21 5.5V14.5C21 15.6046 21.8954 16.5 23 16.5H32C33.1046 16.5 34 15.6046 34 14.5V10.3633L36 8.53711V16.5C36 17.6046 35.1046 18.5 34 18.5H21C19.8954 18.5 19 17.6046 19 16.5V3.5C19 2.39543 19.8954 1.5 21 1.5H34ZM38.9883 0.392578C39.6 -0.165906 40.5488 -0.123191 41.1074 0.488281C41.6659 1.09995 41.6232 2.0488 41.0117 2.60742L29.5117 13.1074L28.4531 14.0742L22.9395 8.56055C22.3537 7.97476 22.3537 7.02524 22.9395 6.43945C23.5252 5.85367 24.4748 5.85367 25.0605 6.43945L28.5469 9.92578L38.9883 0.392578Z" fill="#D9D9D9"/>
</svg>
