<svg width="36" height="36" viewBox="0 0 36 36" fill="none" xmlns="http://www.w3.org/2000/svg">
<path d="M12 0C12.5523 0 13 0.447715 13 1V20C13 20.5523 12.5523 21 12 21H1C0.447715 21 1.00666e-08 20.5523 0 20V4C0 1.79086 1.79086 8.0532e-08 4 0H12ZM6 3.15039C4.34315 3.15039 3 4.49354 3 6.15039V16.8496C3 17.4019 3.44772 17.8496 4 17.8496H9C9.55228 17.8496 10 17.4019 10 16.8496V4.15039C10 3.59811 9.55228 3.15039 9 3.15039H6Z" fill="#B41A1A"/>
<path d="M32 0C34.2091 0 36 1.79086 36 4V9H35.9131C35.9685 9.15653 36 9.3245 36 9.5C36 10.3284 35.3284 11 34.5 11C33.6716 11 33 10.3284 33 9.5C33 9.3245 33.0315 9.15653 33.0869 9H33.0762V5C33.0762 3.89543 32.1807 3 31.0762 3H20.0762C19.5241 3.00022 19.0762 3.44785 19.0762 4V17C19.0762 17.5522 19.5241 17.9998 20.0762 18H32.0762C32.6285 18 33.0762 17.5523 33.0762 17V14H33.0869C33.0315 13.8435 33 13.6755 33 13.5C33 12.6716 33.6716 12 34.5 12C35.3284 12 36 12.6716 36 13.5C36 13.6755 35.9685 13.8435 35.9131 14H36V20C36 20.5523 35.5523 21 35 21H17C16.4477 21 16 20.5523 16 20V1C16 0.447715 16.4477 0 17 0H32Z" fill="#B41A1A"/>
<path d="M36 32C36 34.2091 34.2091 36 32 36L26 36L26 35.9131C25.4177 35.707 25 35.1529 25 34.5C25 33.8471 25.4177 33.293 26 33.0869L26 33.0498L26.1221 33.0498C26.2429 33.0184 26.3693 33 26.5 33C26.631 33 26.7578 33.0182 26.8789 33.0498L31 33.0498C32.1044 33.0498 32.9998 32.1542 33 31.0498L33 27.0498C32.9998 26.4977 32.5522 26.0498 32 26.0498L4 26.0498C3.44784 26.0498 3.00021 26.4977 3 27.0498L3 31.0498C3.00021 32.1542 3.89556 33.0498 5 33.0498L19.1221 33.0498C19.2429 33.0184 19.3693 33 19.5 33C19.631 33 19.7578 33.0182 19.8789 33.0498L20 33.0498L20 33.0869C20.5823 33.293 21 33.8471 21 34.5C21 35.1529 20.5823 35.707 20 35.9131L20 36L0.999999 36C0.447715 36 -5.48676e-07 35.5523 -5.24535e-07 35L-4.37114e-08 24C0.000207483 23.4479 0.447844 23 1 23L35 23C35.5522 23 35.9998 23.4479 36 24L36 32Z" fill="#B41A1A"/>
</svg>
