<svg xmlns="http://www.w3.org/2000/svg" version="1.0" width="16.000000pt" height="16.000000pt"
                  viewBox="0 0 512.000000 512.000000" preserveAspectRatio="xMidYMid meet">
                  <g transform="translate(0.000000,512.000000) scale(0.100000,-0.100000)" fill="currentcolor"
                    stroke="none">
                    <path
                      d="M3405 5104 c-38 -8 -108 -34 -155 -56 -69 -33 -100 -57 -170 -127 -86 -87 -127 -149 -160 -244 l-18 -52 -1399 -5 -1398 -5 -34 -24 c-79 -57 -93 -179 -28 -249 57 -61 -50 -57 1470 -62 l1388 -5 24 -58 c77 -190 228 -334 415 -397 43 -15 100 -24 171 -27 134 -7 227 12 341 69 141 71 273 222 324 372 l16 46 391 0 c436 0 443 1 500 69 64 77 38 204 -53 252 -32 18 -65 19 -435 19 l-400 0 -19 53 c-67 195 -243 361 -446 421 -80 24 -239 29 -325 10z" />
                    <path
                      d="M1552 3219 c-212 -32 -401 -169 -496 -360 -25 -50 -46 -100 -46 -110 0 -18 -14 -19 -435 -19 -481 0 -476 1 -532 -63 -56 -64 -56 -150 0 -214 56 -64 51 -63 532 -63 421 0 435 -1 435 -19 0 -10 21 -60 46 -110 75 -151 208 -269 368 -327 186 -67 401 -46 572 57 117 71 231 210 276 336 l23 63 1346 0 1346 0 43 23 c51 27 90 90 90 147 0 57 -39 120 -90 147 l-43 23 -1347 0 -1348 0 -7 28 c-12 51 -64 149 -110 208 -145 189 -390 288 -623 253z" />
                    <path
                      d="M2600 1311 c-194 -52 -344 -175 -430 -353 -20 -42 -40 -86 -43 -97 l-5 -21 -989 0 c-937 0 -990 -1 -1028 -19 -131 -59 -139 -236 -15 -302 33 -18 81 -19 1031 -19 l996 0 27 -70 c117 -297 420 -470 736 -419 224 36 428 205 507 419 l26 70 791 0 c751 0 793 1 826 19 124 66 116 243 -15 302 -38 18 -85 19 -821 19 l-782 0 -23 62 c-73 196 -252 356 -455 408 -98 25 -243 26 -334 1z" />
                  </g>
                </svg>