<svg width="40" height="35" viewBox="0 0 40 35" fill="none" xmlns="http://www.w3.org/2000/svg">
<path d="M33.5 7L34.9593 11.4914H39.6819L35.8613 14.2672L37.3206 18.7586L33.5 15.9828L29.6794 18.7586L31.1387 14.2672L27.3181 11.4914H32.0407L33.5 7Z" fill="#D9D9D9"/>
<rect x="29" y="20" width="9" height="15" fill="#D9D9D9"/>
<path d="M20.5 0L21.9593 4.49139H26.6819L22.8613 7.26722L24.3206 11.7586L20.5 8.98278L16.6794 11.7586L18.1387 7.26722L14.3181 4.49139H19.0407L20.5 0Z" fill="#D9D9D9"/>
<rect x="16" y="13" width="9" height="22" fill="#D9D9D9"/>
<path d="M6.5 7L7.95934 11.4914H12.6819L8.86126 14.2672L10.3206 18.7586L6.5 15.9828L2.6794 18.7586L4.13874 14.2672L0.318133 11.4914H5.04066L6.5 7Z" fill="#D9D9D9"/>
<rect x="2" y="20" width="9" height="15" fill="#D9D9D9"/>
</svg>
