<svg width="40" height="40" viewBox="0 0 40 40" fill="none" xmlns="http://www.w3.org/2000/svg">
<path d="M38 0C39.1046 0 40 0.895431 40 2V3C40 4.10457 39.1046 5 38 5H32C31.2601 5 30.6155 4.59733 30.2695 4H27.7305C27.5551 4.30282 27.3028 4.55405 27 4.72949V26C30.866 26 34 29.134 34 33C34 36.866 30.866 40 27 40C24.6087 40 22.4981 38.8004 21.2354 36.9707C21.1598 36.989 21.0812 37 21 37H1C0.447715 37 8.05326e-09 36.5523 0 36V33C0 32.4477 0.447715 32 1 32H20.0723C20.4098 29.6406 21.9227 27.6607 24 26.6738V3C24 1.89543 24.8954 1 26 1H30.2695C30.6155 0.402669 31.2601 1.07894e-08 32 0H38ZM27 29C24.7909 29 23 30.7909 23 33C23 35.2091 24.7909 37 27 37C29.2091 37 31 35.2091 31 33C31 30.7909 29.2091 29 27 29ZM19 23C19.5523 23 20 23.4477 20 24V29C20 29.5523 19.5523 30 19 30H5C4.44772 30 4 29.5523 4 29V24C4 23.4477 4.44772 23 5 23H19ZM19 14C19.5523 14 20 14.4477 20 15V20C20 20.5523 19.5523 21 19 21H5C4.44772 21 4 20.5523 4 20V15C4 14.4477 4.44772 14 5 14H19ZM19 5C19.5523 5 20 5.44772 20 6V11C20 11.5523 19.5523 12 19 12H5C4.44772 12 4 11.5523 4 11V6C4 5.44772 4.44772 5 5 5H19Z" fill="#6C7A93"/>
</svg>
