<?xml version="1.0" encoding="UTF-8"?><svg id="_лой_1" xmlns="http://www.w3.org/2000/svg" viewBox="0 0 637.8 128.98"><defs><style>.cls-1{fill:#b1ec52;}.cls-2{fill:#0b5fa3;}.cls-3{fill:#4d5759;}</style></defs><g><path class="cls-1" d="M587.35,7.91c-5.96,0-10.8,4.83-10.8,10.8v21.6c0,5.96,4.83,10.8,10.8,10.8h21.6c5.96,0,10.8-4.83,10.8-10.8V7.91h-32.4Z"/><path class="cls-3" d="M588.36,25.16c-.35-1.54,1.19-2.91,3.18-2.91,1.8,0,3.6,.4,4.28,2.91h2.3v3.82c-2.87-2.36-9.09-.88-9.76-3.82m23.89-1.06h-5.19l-4.93,5.4v-10.79h-4v2.62c-.13-.17-.27-.34-.42-.5-1.46-1.54-3.55-2.32-6.23-2.32-3.1,0-4.86,1.39-5.8,2.55-1.16,1.44-1.68,3.42-1.32,5.02,.93,4.16,4.79,4.82,7.62,5.19,2.24,.29,4.38,.7,4.32,2.69-.06,2.07-2.39,2.58-3.93,2.58-3.99,0-4.13-2.95-4.13-2.95h-4.29c.06,1.11,.4,2.89,1.76,4.41,1.49,1.67,3.73,2.52,6.66,2.52,2.24,0,4.29-.73,5.75-2.03v1.78h4v-5.1l1.42-1.55,4.04,6.65h4.66l-5.88-9.73,5.89-6.45Z"/></g><g id="_лой_1-2"><g id="_2139885169520"><g><rect class="cls-2" x="53.56" y="95.07" width="8.65" height="12.65"/><path class="cls-2" d="M43.43,52.89c3.34-1.98,7.02-2.97,11.05-2.97,4.41,0,8.36,1.12,11.83,3.36,.16,.1,.31,.21,.46,.32l7.37-10.73c-1.52-.98-3.12-1.85-4.81-2.59-4.58-2.01-9.53-3.02-14.85-3.02-6.43,0-12.36,1.51-17.82,4.53-5.45,3.02-9.8,7.2-13.05,12.56-3.25,5.35-4.87,11.41-4.87,18.16s1.62,12.8,4.87,18.16c3.24,5.35,7.59,9.54,13.05,12.56,5.19,2.87,10.82,4.36,16.89,4.5v-12.66c-3.66-.14-7.04-1.11-10.13-2.94-3.34-1.98-5.97-4.69-7.89-8.13-1.92-3.44-2.87-7.27-2.87-11.49s.96-8.05,2.87-11.49c1.91-3.44,4.54-6.15,7.89-8.13Z"/><path class="cls-2" d="M67.07,78.69h6.4c1.34,0,2.43,1.09,2.43,2.43v26.64h-11.25v-26.64c0-1.34,1.09-2.43,2.43-2.43Z"/><path class="cls-2" d="M80.71,70.57h6.47c1.32,0,2.39,1.07,2.39,2.39v34.79h-11.25v-34.79c0-1.32,1.07-2.39,2.39-2.39Z"/></g><g><path class="cls-2" d="M95.77,107.98V51.74h41.54v10.51h-29.13v12.02h26.84v9.54h-26.84v13.65h29.71v10.51h-42.12Z"/><path class="cls-2" d="M181.42,107.98v-37.66l-23.16,37.66h-12.3V51.74h11.64v37.82h.04l23.12-37.82h12.3v56.24h-11.64Zm-10.82-59.42c6.49,0,10.99-3.76,13.5-11.29h-9.12c-3.03,7.37-6.27,7.37-9.74,0h-8.57c2.79,7.53,7.43,11.29,13.93,11.29Z"/><path class="cls-2" d="M201.16,97.51c6.31,4.19,9.08-7.69,8.3-35.65l.04-10.12h40.84v56.24h-12.34V62.17h-17.07c2.09,26.66-1.75,41.98-11.52,45.97l-8.22,.15-.04-10.78Z"/><path class="cls-2" d="M293.44,107.98V62.25h-16.72v-10.51h45.58v10.51h-16.6v45.73h-12.26Z"/><path class="cls-2" d="M327.34,107.98V51.74h25.06c3.36,0,6.28,.5,8.75,1.49,2.47,1,4.48,2.35,6.03,4.07,1.55,1.72,2.7,3.65,3.43,5.78,.74,2.13,1.11,4.42,1.11,6.85s-.36,4.68-1.09,6.83c-.72,2.12-1.86,4.02-3.41,5.7-1.55,1.66-3.56,2.97-6.03,3.96-2.47,.98-5.39,1.47-8.75,1.47h-12.76v20.09h-12.33Zm12.33-46.55v16.76h9.39c3.31,0,5.95-.58,7.91-1.75,1.91-1.16,2.87-3.34,2.87-6.52s-.96-5.55-2.87-6.73c-1.91-1.18-4.55-1.76-7.91-1.76h-9.39Z"/><path class="cls-2" d="M378.15,107.98V51.74h41.54v10.51h-29.13v12.02h26.84v9.54h-26.84v13.65h29.71v10.51h-42.12Z"/><path class="cls-2" d="M428.23,107.98V51.74h12.41v23.35l21.53-23.35h15.17l-21.53,22.23,23.89,34.02h-15.55l-16.52-25.17-6.98,7.06v18.11h-12.41Z"/><path class="cls-2" d="M483.93,107.98V51.74h41.54v10.51h-29.13v12.02h26.84v9.54h-26.84v13.65h29.71v10.51h-42.12Z"/><path class="cls-2" d="M533.58,107.98V51.74h25.06c3.36,0,6.28,.5,8.75,1.49,2.47,1,4.48,2.35,6.03,4.07,1.55,1.72,2.7,3.65,3.43,5.78,.74,2.13,1.11,4.42,1.11,6.85s-.36,4.68-1.09,6.83c-.72,2.12-1.86,4.02-3.41,5.7-1.55,1.66-3.56,2.97-6.03,3.96-2.47,.98-5.39,1.47-8.75,1.47h-12.76v20.09h-12.33Zm12.33-46.55v16.76h9.39c3.31,0,5.95-.58,7.91-1.75,1.91-1.16,2.87-3.34,2.87-6.52s-.96-5.55-2.87-6.73c-1.91-1.18-4.55-1.76-7.91-1.76h-9.39Z"/></g></g></g></svg>