<svg width="66" height="47" viewBox="0 0 66 47" fill="none" xmlns="http://www.w3.org/2000/svg">
<path d="M2 14.5C0.89543 14.5 0 15.3954 0 16.5C0 17.6046 0.89543 18.5 2 18.5V14.5ZM2 18.5H66V14.5H2V18.5Z" fill="white"/>
<path d="M2 28.5C0.89543 28.5 0 29.3954 0 30.5C0 31.6046 0.89543 32.5 2 32.5V28.5ZM2 32.5H66V28.5H2V32.5Z" fill="white"/>
<path d="M2 42.5C0.89543 42.5 0 43.3954 0 44.5C0 45.6046 0.89543 46.5 2 46.5V42.5ZM2 46.5H66V42.5H2V46.5Z" fill="white"/>
<path d="M2 0C0.89543 0 0 0.89543 0 2C0 3.10457 0.89543 4 2 4V0ZM2 4H66V0H2V4Z" fill="white"/>
</svg>
