<?xml version="1.0" encoding="UTF-8"?>
<!DOCTYPE svg PUBLIC "-//W3C//DTD SVG 1.1//EN" "http://www.w3.org/Graphics/SVG/1.1/DTD/svg11.dtd">
<!-- Creator: CorelDRAW 2020 (64-Bit) -->
<svg xmlns="http://www.w3.org/2000/svg" xml:space="preserve" width="210mm" height="40mm" version="1.1" style="shape-rendering:geometricPrecision; text-rendering:geometricPrecision; image-rendering:optimizeQuality; fill-rule:evenodd; clip-rule:evenodd"
viewBox="0 0 21000 4000"
 xmlns:xlink="http://www.w3.org/1999/xlink"
 xmlns:xodm="http://www.corel.com/coreldraw/odm/2003">
 <defs>
  <style type="text/css">
   <![CDATA[
    .fil0 {fill:#0B5FA3}
    .fil1 {fill:#0B5FA3;fill-rule:nonzero}
   ]]>
  </style>
 </defs>
 <g id="Слой_x0020_1">
  <metadata id="CorelCorpID_0Corel-Layer"/>
  <g id="_2139885169520">
   <path class="fil0" d="M1499.93 3263.94c-504.52,-192.78 -859.09,-651.08 -859.09,-1245.38 0,-266.33 64.01,-505.12 192.06,-716.38 128.04,-211.29 299.6,-376.44 514.73,-495.52 215.1,-119.08 449.42,-178.62 702.94,-178.62 209.99,0 405.25,39.68 585.78,119.08 180.55,79.38 336.12,193.33 466.72,341.87 130.61,148.53 225.35,323.93 284.26,526.26l-455.25 0c-179.63,-378.62 -543.4,-563.17 -885.63,-563.17 -547.33,0 -995.47,414.68 -981.17,971.37 11.6,450.99 350.49,829.68 826.7,904.01l-1.26 -345.58c-0.18,-50.54 41.38,-91.92 91.93,-91.92l252.79 0c50.55,0 91.92,41.38 91.92,91.92l0 689.72c0,50.55 -41.37,91.9 -91.92,91.9 -276.55,0 -473.2,0.63 -735.51,-99.56zm1544.78 -1343.42l252.79 0c50.58,0 91.92,41.35 91.92,91.9l0 1259.18c0,50.58 -41.34,91.93 -91.92,91.93l-252.79 0c-50.55,0 -91.9,-41.35 -91.9,-91.93l0 -1259.18c0,-50.55 41.35,-91.9 91.9,-91.9zm-278.23 315.13l-252.82 0c-50.54,0 -91.89,41.35 -91.89,91.92l0 944.03c0,50.58 41.35,91.93 91.89,91.93l252.82 0c50.55,0 91.9,-41.35 91.9,-91.93l0 -944.03c0,-50.57 -41.35,-91.92 -91.9,-91.92z"/>
   <polygon class="fil1" points="4069.78,2473.87 4069.78,2971.25 4950,2971.25 4950,3363.12 3647.77,3363.12 3647.77,1253.03 4919.85,1253.03 4919.85,1644.9 4069.78,1644.9 4069.78,2081.99 4889.71,2081.99 4889.71,2473.87 "/>
   <path class="fil1" d="M5692.33 2624.59l1184.67 -1371.56 286.37 0 0 2110.09 -422.02 0 0 -1368.55 -1184.66 1368.55 -286.37 0 0 -2110.09 422.01 0 0 1371.56zm557.67 -1531.33c-158.76,0 -282.85,-43.71 -372.28,-131.13 -89.43,-87.41 -138.16,-197.44 -146.2,-330.07l307.47 0c8.04,66.31 31.15,117.06 69.33,152.22 38.19,35.17 85.41,52.76 141.68,52.76 56.27,0 103.5,-17.59 141.68,-52.76 38.18,-35.16 61.29,-85.91 69.33,-152.22l307.47 0c-8.04,132.63 -56.77,242.66 -146.2,330.07 -89.42,87.42 -213.52,131.13 -372.28,131.13z"/>
   <path class="fil1" d="M7845.4 1253.03l1413.77 0 0 2110.09 -422.02 0 0 -1718.22 -599.87 0 -78.38 973.66c-22.1,271.3 -87.42,466.73 -195.93,586.3 -108.52,119.57 -264.27,179.36 -467.24,179.36l-132.63 0 0 -406.95 63.3 0c100.48,0 174.84,-32.15 223.07,-96.46 48.23,-64.3 78.37,-169.81 90.43,-316.51l105.5 -1311.27z"/>
   <polygon class="fil1" points="11222.37,3363.12 10800.35,3363.12 10800.35,1644.9 10272.83,1644.9 10272.83,1253.03 11746.88,1253.03 11746.88,1644.9 11222.37,1644.9 "/>
   <path class="fil1" d="M12667.06 1253.03c162.78,0 303.45,29.14 422.02,87.41 118.57,58.28 209,138.67 271.3,241.16 62.29,102.49 93.44,220.05 93.44,352.68 0,132.64 -31.15,250.2 -93.44,352.69 -62.3,102.49 -152.73,182.88 -271.3,241.16 -118.57,58.27 -259.24,87.41 -422.02,87.41l-283.36 0 0 747.58 -422.01 0 0 -2110.09 705.37 0zm-3.01 970.64c114.54,0 202.97,-27.13 265.26,-81.39 62.3,-54.26 93.45,-123.59 93.45,-208 0,-84.4 -31.15,-153.73 -93.45,-207.99 -62.29,-54.26 -150.72,-81.39 -265.26,-81.39l-280.35 0 0 578.77 280.35 0z"/>
   <polygon class="fil1" points="14120.77,2473.87 14120.77,2971.25 15000.99,2971.25 15000.99,3363.12 13698.76,3363.12 13698.76,1253.03 14970.84,1253.03 14970.84,1644.9 14120.77,1644.9 14120.77,2081.99 14940.7,2081.99 14940.7,2473.87 "/>
   <polygon class="fil1" points="16159.31,2268.89 17060.63,3363.12 16527.07,3363.12 15743.32,2395.49 15743.32,3363.12 15321.31,3363.12 15321.31,1253.03 15743.32,1253.03 15743.32,2184.48 16490.9,1253.03 16991.29,1253.03 "/>
   <polygon class="fil1" points="17652.24,2473.87 17652.24,2971.25 18532.46,2971.25 18532.46,3363.12 17230.23,3363.12 17230.23,1253.03 18502.31,1253.03 18502.31,1644.9 17652.24,1644.9 17652.24,2081.99 18472.17,2081.99 18472.17,2473.87 "/>
   <path class="fil1" d="M19558.14 1253.03c162.78,0 303.45,29.14 422.02,87.41 118.57,58.28 209,138.67 271.3,241.16 62.29,102.49 93.44,220.05 93.44,352.68 0,132.64 -31.15,250.2 -93.44,352.69 -62.3,102.49 -152.73,182.88 -271.3,241.16 -118.57,58.27 -259.24,87.41 -422.02,87.41l-283.36 0 0 747.58 -422.01 0 0 -2110.09 705.37 0zm-3.01 970.64c114.54,0 202.97,-27.13 265.26,-81.39 62.3,-54.26 93.45,-123.59 93.45,-208 0,-84.4 -31.15,-153.73 -93.45,-207.99 -62.29,-54.26 -150.72,-81.39 -265.26,-81.39l-280.35 0 0 578.77 280.35 0z"/>
  </g>
 </g>
</svg>
