<?xml version="1.0" encoding="UTF-8"?>
<svg width="397px" height="343px" viewBox="0 0 397 343" version="1.1" xmlns="http://www.w3.org/2000/svg" xmlns:xlink="http://www.w3.org/1999/xlink">
    <!-- Generator: Sketch 56.2 (81672) - https://sketch.com -->
    <title>ярлык</title>
    <desc>Created with Sketch.</desc>
    <g id="Page-1" stroke="none" stroke-width="1" fill="none" fill-rule="evenodd">
        <g id="ярлык" transform="translate(-44.736842, -16.736842)">
            <g id="Layer-1" transform="translate(0.736842, 0.736842)">
                <g id="логотип" transform="translate(0.984451, 0.401451)">
                    <g id="Group" transform="translate(0.322088, 0.905096)">
                        <g fill-rule="nonzero" id="Path">
                            <g transform="translate(259.906910, 220.734764) scale(-1, 1) rotate(-116.664856) translate(-259.906910, -220.734764) translate(124.406910, -1.265236)" fill="#003DA7">
                                <path d="M93.8143107,0.0162932969 C-10.243566,208.222575 84.6100268,227.137068 0.00631848558,396.414815 L93.8143107,443.748118 L270.925569,89.3809659 L93.8143107,0.0162932969 Z"></path>
                            </g>
                            <g transform="translate(42.153892, 14.339545)" fill="#FFFFFF">
                                <path d="M397.539569,0.353907212 L397.539569,316.353907 C164.281271,316.353907 190.180462,223.301188 0.539569267,223.301188 L0.539569267,0.353907212 L397.539569,0.353907212 Z"></path>
                            </g>
                        </g>
                        <g transform="translate(75.507891, 85.053585)" fill="#003DA7">
                            <g transform="translate(140.806973, 11.117173)" fill-rule="nonzero" id="Path">
                                <path d="M7.55895604,8.26723231 C10.2323068,8.26723231 11.722681,7.45202827 12.8099108,6.85581538 C13.6073807,6.42036477 14.0067455,6.20010777 15.1078335,6.20010777 C16.2064018,6.20010777 16.6070264,6.42036477 17.4019766,6.85581538 C18.4892065,7.45076243 19.9808405,8.26723231 22.6529314,8.26723231 L22.6529314,2.06712454 C21.5518435,2.06712454 21.1537385,1.84686755 20.3562686,1.41015109 C19.2690388,0.813938199 17.7811843,0 15.1078335,0 C12.4344827,0 10.9441085,0.813938199 9.85687868,1.41015109 C9.05814899,1.84686755 8.66004397,2.06712454 7.55895604,2.06712454 C6.46290742,2.06712454 6.06354257,1.84686755 5.27111201,1.41141694 C4.18388217,0.815204044 2.69476783,0 0.0239366941,0 L0.0239366941,6.20010777 C1.12124515,6.20010777 1.51935016,6.42036477 2.31178072,6.85454953 C3.40027039,7.45076243 4.88812491,8.26723231 7.55895604,8.26723231"></path>
                            </g>
                            <g transform="translate(79.369038, 0.022803)" fill-rule="nonzero" id="Shape">
                                <path d="M6.43015194,6.62416578 L14.7916171,6.62416578 L14.7916171,15.226847 L6.43015194,15.226847 L6.43015194,6.62416578 Z M6.43015194,20.8155517 L20.6321705,20.8155517 L20.6321705,0.875964594 L0.629913004,0.875964594 L0.629913004,29.4182329 L6.43015194,29.4182329 L6.43015194,20.8155517 Z"></path>
                            </g>
                            <g transform="translate(230.898391, 41.514283)" fill-rule="nonzero" id="Path">
                                <path d="M0,15.1926692 C0,23.2712906 6.48180481,29.7827962 14.5232742,29.7827962 C16.7015134,29.7827962 18.7399119,29.3093702 20.5603604,28.4764444 L20.5603604,21.7813913 C19.0082548,23.2510371 16.9232428,24.1561161 14.5232742,24.1561161 C9.56207939,24.1561161 5.8418132,20.1357931 5.8418132,15.1926692 C5.8418132,10.2470136 9.56207939,6.22795636 14.5232742,6.22795636 C16.9232428,6.22795636 19.0082548,7.13176954 20.5603604,8.60141534 L20.5603604,1.90636225 C18.7399119,1.07343638 16.7015134,0.60001043 14.5232742,0.60001043 C6.48180481,0.60001043 0,7.11151602 0,15.1926692"></path>
                            </g>
                            <g transform="translate(0.190738, 0.578002)" fill-rule="nonzero" id="Path">
                                <path d="M15.1179121,29.1840516 C17.2961513,29.1840516 19.3358096,28.7106257 21.1549983,27.8776998 L21.1549983,21.1813808 C19.6041525,22.6510266 17.5178806,23.5561057 15.1179121,23.5561057 C10.1567173,23.5561057 6.43645107,19.5370485 6.43645107,14.5926587 C6.43645107,9.64700313 10.1567173,5.62794593 15.1179121,5.62794593 C17.5178806,5.62794593 19.6041525,6.53175911 21.1549983,8.00267075 L21.1549983,1.30761767 C19.3358096,0.473425951 17.2961513,0 15.1179121,0 C7.07644268,0 0.594637875,6.51150559 0.594637875,14.5926587 C0.594637875,22.6712802 7.07644268,29.1840516 15.1179121,29.1840516"></path>
                            </g>
                            <g transform="translate(103.469510, 0.083183)" fill-rule="nonzero" id="Shape">
                                <path d="M15.1179121,6.12289124 C20.0387925,6.12289124 23.7590587,10.1419484 23.7590587,15.087604 C23.7590587,20.0319938 20.0387925,24.051051 15.1179121,24.051051 C10.1567173,24.051051 6.43645107,20.0319938 6.43645107,15.087604 C6.43645107,10.1419484 10.1567173,6.12289124 15.1179121,6.12289124 M15.1179121,29.6789969 C23.1190671,29.6789969 29.6399265,23.1662255 29.6399265,15.087604 C29.6399265,7.00645091 23.1190671,0.494945312 15.1179121,0.494945312 C7.07644268,0.494945312 0.594637875,7.00645091 0.594637875,15.087604 C0.594637875,23.1662255 7.07644268,29.6789969 15.1179121,29.6789969"></path>
                            </g>
                            <g transform="translate(2.426173, 41.862011)" fill-rule="nonzero" id="Path">
                                <polygon points="0 0.251903113 0 29.1144301 5.80023894 29.1144301 5.80023894 13.8394811 14.0823351 22.4408964 22.4034859 13.8394811 22.4034859 29.1144301 28.2049846 29.1144301 28.2049846 0.251903113 14.1226495 14.7635478"></polygon>
                            </g>
                            <g transform="translate(36.170109, 41.571373)" fill-rule="nonzero" id="Shape">
                                <path d="M10.0786081,23.9383908 L5.83803372,23.9383908 L5.83803372,16.5407939 L10.0786081,16.5407939 C12.6385745,16.5407939 14.278868,17.8673992 14.278868,20.2800994 C14.278868,22.6927995 12.6385745,23.9383908 10.0786081,23.9383908 M10.1189225,11.1141172 L5.83803372,11.1141172 L5.83803372,0.863306146 L0.0365349542,0.863306146 L0.0365349542,29.4043086 L10.1189225,29.4043086 C15.7591635,29.4043086 19.9203688,25.5865207 19.9203688,20.2800994 C19.9203688,14.9344368 15.7591635,11.1141172 10.1189225,11.1141172"></path>
                            </g>
                            <g transform="translate(59.211822, 42.320989)" id="Rectangle">
                                <rect x="0.519048315" y="0.113943414" width="5.80149876" height="28.5410024"></rect>
                            </g>
                            <g transform="translate(69.344603, 42.370240)" fill-rule="nonzero" id="Path">
                                <polygon points="26.4563461 9.59232572 26.4563461 0.0655778376 0.691644478 0.0655778376 0.691644478 9.59232572 6.49188341 9.59232572 6.49188341 5.81377902 10.6530887 5.81377902 10.6530887 28.6065803 16.4545875 28.6065803 16.4545875 5.81377902 20.6561072 5.81377902 20.6561072 9.59232572"></polygon>
                            </g>
                            <g transform="translate(99.805936, 41.693400)" fill-rule="nonzero" id="Path">
                                <polygon points="6.29913004 23.373824 18.941484 12.8419954 18.941484 29.2827875 24.7429828 29.2827875 24.7429828 0.42026047 6.29913004 15.6964754 6.29913004 0.741785046 0.498891099 0.741785046 0.498891099 29.2827875 6.29913004 29.2827875"></polygon>
                            </g>
                            <g transform="translate(171.219173, 41.693400)" fill-rule="nonzero" id="Path">
                                <polygon points="6.29913004 23.373824 18.941484 12.8419954 18.941484 29.2827875 24.7429828 29.2827875 24.7429828 0.42026047 6.29913004 15.6964754 6.29913004 0.741785046 0.498891099 0.741785046 0.498891099 29.2827875 6.29913004 29.2827875"></polygon>
                            </g>
                            <g transform="translate(256.679470, 41.596057)" fill-rule="nonzero" id="Path">
                                <polygon points="12.5982601 15.0293752 23.2009557 0.839255095 16.479784 0.839255095 5.87708832 15.0293752 5.87708832 0.839255095 0.0768493864 0.839255095 0.0768493864 29.3802575 5.87708832 29.3802575 5.87708832 20.7788422 13.3982496 20.7788422 17.9588197 29.3802575 24.4406245 29.3802575 16.79852 15.0293752"></polygon>
                            </g>
                            <g transform="translate(206.714771, 83.131842)" fill-rule="nonzero" id="Path">
                                <polygon points="12.5982601 15.0293752 23.2009557 0.839255095 16.479784 0.839255095 5.87708832 15.0293752 5.87708832 0.839255095 0.0768493864 0.839255095 0.0768493864 29.3802575 5.87708832 29.3802575 5.87708832 20.7788422 13.3982496 20.7788422 17.9588197 29.3802575 24.4406245 29.3802575 16.79852 15.0293752"></polygon>
                            </g>
                            <g transform="translate(283.982420, 41.540360)" fill-rule="nonzero" id="Path">
                                <polygon points="6.29913004 0.894952266 0.497631273 0.894952266 0.497631273 29.4359547 6.29913004 29.4359547 6.29913004 23.5269912 18.941484 12.9951626 18.941484 29.4359547 24.741723 29.4359547 24.741723 0.573427689 6.29913004 15.8483768"></polygon>
                            </g>
                            <g transform="translate(314.533200, 41.776440)" fill-rule="nonzero" id="Path">
                                <polygon points="6.29913004 15.6129296 6.29913004 0.659505135 0.498891099 0.659505135 0.498891099 29.1992417 6.29913004 29.1992417 6.29913004 23.2902783 18.941484 12.7584496 18.941484 29.1992417 24.7429828 29.1992417 24.7429828 0.337980559"></polygon>
                            </g>
                            <g transform="translate(1.927912, 83.076145)" fill-rule="nonzero" id="Path">
                                <polygon points="6.29913004 0.894952266 0.498891099 0.894952266 0.498891099 29.4359547 6.29913004 29.4359547 6.29913004 23.5269912 18.941484 12.9951626 18.941484 29.4359547 24.7429828 29.4359547 24.7429828 0.573427689 6.29913004 15.8483768"></polygon>
                            </g>
                            <g transform="translate(83.995120, 82.948295)" fill-rule="nonzero" id="Shape">
                                <path d="M15.1179121,24.2573837 C10.1567173,24.2573837 6.43645107,20.2370606 6.43645107,15.2939367 C6.43645107,10.3482811 10.1567173,6.32922394 15.1179121,6.32922394 C20.0387925,6.32922394 23.7590587,10.3482811 23.7590587,15.2939367 C23.7590587,20.2370606 20.0387925,24.2573837 15.1179121,24.2573837 M15.1179121,0.701278013 C7.07644268,0.701278013 0.595897701,7.21278361 0.595897701,15.2939367 C0.595897701,23.373824 7.07644268,29.8853296 15.1179121,29.8853296 C23.1203269,29.8853296 29.6411863,23.373824 29.6411863,15.2939367 C29.6411863,7.21278361 23.1203269,0.701278013 15.1179121,0.701278013"></path>
                            </g>
                            <g transform="translate(116.759415, 83.904254)" fill-rule="nonzero" id="Path">
                                <polygon points="17.6375641 12.126547 6.67581801 12.126547 6.67581801 0.0668436823 0.874319249 0.0668436823 0.874319249 17.8747482 17.6375641 17.8747482 17.6375641 28.6078461 23.4793773 28.6078461 23.4793773 0.0668436823 17.6375641 0.0668436823"></polygon>
                            </g>
                            <g transform="translate(176.388239, 83.076145)" fill-rule="nonzero" id="Path">
                                <polygon points="6.29913004 0.894952266 0.497631273 0.894952266 0.497631273 29.4359547 6.29913004 29.4359547 6.29913004 23.5269912 18.941484 12.9951626 18.941484 29.4359547 24.7429828 29.4359547 24.7429828 0.573427689 6.29913004 15.8483768"></polygon>
                            </g>
                            <g transform="translate(327.937395, 39.566467) scale(-1, 1) translate(-327.937395, -39.566467) translate(324.937395, 36.066467)" id="Rectangle">
                                <rect x="0.0503930403" y="0.540515725" width="5.80149876" height="5.82794941"></rect>
                            </g>
                            <g transform="translate(30.994365, 83.052094)" fill-rule="nonzero" id="Path">
                                <path d="M0,15.1901375 C0,23.2700247 6.48180481,29.7815303 14.5232742,29.7815303 C16.7015134,29.7815303 18.7399119,29.3081044 20.5591006,28.4751785 L20.5591006,21.7788596 C19.0082548,23.2485054 16.9232428,24.1535844 14.5232742,24.1535844 C9.56207939,24.1535844 5.8418132,20.1332614 5.8418132,15.1901375 C5.8418132,10.2457477 9.56207939,6.22542467 14.5232742,6.22542467 C16.9232428,6.22542467 19.0082548,7.13050369 20.5591006,8.60014949 L20.5591006,1.90383056 C18.7399119,1.07090469 16.7015134,0.598744585 14.5232742,0.598744585 C6.48180481,0.598744585 0,7.10898433 0,15.1901375"></path>
                            </g>
                            <g transform="translate(48.114519, 0.882167)" fill-rule="nonzero" id="Shape">
                                <path d="M17.6375641,5.52542989 L21.0214568,5.52542989 L21.0214568,17.0496808 C20.49107,16.9370207 19.890133,16.8623358 19.1745518,16.8623358 C16.9774153,16.8623358 15.7579037,17.529436 14.8672067,18.0167863 C14.2511518,18.3547668 14.0193438,18.4813513 13.2596687,18.4813513 C12.5050329,18.4813513 12.2744848,18.3560327 11.6609495,18.0193179 C11.6269342,18.0003303 11.5891394,17.9800768 11.5538643,17.9610891 L17.6375641,5.52542989 Z M6.36968029,28.5587417 L9.0631883,23.0523168 C9.9450665,23.5346037 11.1482003,24.1510701 13.2596687,24.1510701 C15.4580651,24.1510701 16.6775767,23.4827041 17.5670138,22.9953538 C18.1855884,22.6573733 18.4148767,22.5307888 19.1745518,22.5307888 C19.9342269,22.5307888 20.1647751,22.6573733 20.78083,22.9953538 C20.8576794,23.0371267 20.9395681,23.0814313 21.0214568,23.1257358 L21.0214568,28.5587417 L26.8229555,28.5587417 L26.8229555,0.0177392101 L23.0447373,0.0177392101 L21.0214568,0.0177392101 L20.3323319,0.0177392101 L15.0070474,0.0177392101 L14.5308332,0.0177392101 L0.568181529,28.5587417 L6.36968029,28.5587417 Z"></path>
                            </g>
                            <g transform="translate(201.764915, 41.645298)" fill-rule="nonzero" id="Path">
                                <path d="M6.29913004,23.7915528 L6.29913004,18.0268956 C7.07392303,18.3509519 8.07422488,18.6256402 9.47767105,18.6256402 C11.6760674,18.6256402 12.895579,17.9572742 13.7850162,17.4699239 C14.4023309,17.1319434 14.6328791,17.0053589 15.3925542,17.0053589 C16.1522292,17.0053589 16.3827774,17.1319434 16.9988323,17.4699239 C17.4259133,17.7028394 17.9323634,17.9762618 18.5811738,18.2003164 L18.5811738,29.3308896 L24.3826725,29.3308896 L24.3826725,0.789887148 L18.5811738,0.789887148 L18.5811738,11.9369164 C17.805121,11.6103284 16.8010396,11.3356401 15.3925542,11.3356401 C13.1954176,11.3356401 11.975906,12.0027403 11.085209,12.4913564 C10.4691541,12.8293369 10.2373461,12.9546556 9.47767105,12.9546556 C8.72177545,12.9546556 8.49248711,12.8293369 7.87895185,12.4926222 C7.45313066,12.2597068 6.9466806,11.9850185 6.29913004,11.7622298 L6.29913004,0.789887148 L0.498891099,0.789887148 L0.498891099,29.3308896 L6.29913004,29.3308896 L6.29913004,23.7915528 Z"></path>
                            </g>
                            <g transform="translate(145.822341, 83.643243)" fill-rule="nonzero" id="Path">
                                <path d="M18.8973901,11.4736172 C18.1213373,11.1470292 17.117256,10.8723409 15.7087705,10.8723409 C13.5116339,10.8723409 12.2921224,11.5407069 11.4001655,12.0280572 C10.7841106,12.3660377 10.5535625,12.4926222 9.79514721,12.4926222 C9.03799178,12.4926222 8.80870344,12.3660377 8.19390835,12.0280572 C7.76808716,11.7951417 7.26289693,11.5217193 6.61534636,11.2976647 L6.61534636,0.326587955 L0.813847601,0.326587955 L0.813847601,28.8688562 L6.61534636,28.8688562 L6.61534636,23.3282536 L6.61534636,17.5648623 C7.39013936,17.8876527 8.39170103,18.1610752 9.79514721,18.1610752 C11.9922838,18.1610752 13.2105355,17.493975 14.1024923,17.0066247 C14.7185472,16.6686442 14.9490954,16.5420597 15.7087705,16.5420597 C16.4684456,16.5420597 16.6989937,16.6686442 17.3163085,17.0066247 C17.7421297,17.2395402 18.2485797,17.5129627 18.8973901,17.7357513 L18.8973901,28.8688562 L24.697629,28.8688562 L24.697629,0.326587955 L18.8973901,0.326587955 L18.8973901,11.4736172 Z"></path>
                            </g>
                            <g transform="translate(55.943582, 83.905519)" fill-rule="nonzero" id="Path">
                                <polygon points="0 9.59232572 5.80023894 9.59232572 5.80023894 5.81377902 9.96144424 5.81377902 9.96144424 28.6065803 15.762943 28.6065803 15.762943 5.81377902 19.9632029 5.81377902 19.9632029 9.59232572 25.7647017 9.59232572 25.7647017 0.0655778376 0 0.0655778376"></polygon>
                            </g>
                            <g transform="translate(25.236457, 0.814581)" fill-rule="nonzero" id="Path">
                                <polygon points="6.29913004 5.83276669 10.4603353 5.83276669 10.4603353 28.625568 16.2618341 28.625568 16.2618341 5.83276669 20.462094 5.83276669 20.462094 9.61131339 26.2635928 9.61131339 26.2635928 0.0845655094 0.498891099 0.0845655094 0.498891099 9.61131339 6.29913004 9.61131339"></polygon>
                            </g>
                            <g transform="translate(130.946315, 41.481751)" fill-rule="nonzero" id="Path">
                                <polygon points="0 0.953181126 0 29.4941836 30.6452676 29.4941836 30.6452676 35.4436541 36.2464541 35.4436541 36.2464541 23.8675035 32.5665023 23.8675035 32.5665023 0.953181126 26.7650035 0.953181126 26.7650035 23.8675035 19.1632134 23.8675035 19.1632134 0.953181126 13.3617146 0.953181126 13.3617146 23.8675035 5.80023894 23.8675035 5.80023894 0.953181126"></polygon>
                            </g>
                        </g>
                    </g>
                </g>
            </g>
        </g>
    </g>
</svg>