<?xml version="1.0" encoding="UTF-8"?><svg id="_лой_1" xmlns="http://www.w3.org/2000/svg" viewBox="0 0 290.28 180.89"><defs><style>.cls-1,.cls-2{fill:#fff;}.cls-2{fill-rule:evenodd;}</style></defs><g id="_лой_1-2"><g id="_2139885169520"><g><path class="cls-2" d="M47.02,95.52c-14.3-5.46-24.35-18.46-24.35-35.3,0-7.55,1.81-14.32,5.44-20.31,3.63-5.99,8.49-10.67,14.59-14.05,6.1-3.38,12.74-5.06,19.93-5.06,5.95,0,11.49,1.12,16.6,3.38,5.12,2.25,9.53,5.48,13.23,9.69,3.7,4.21,6.39,9.18,8.06,14.92h-12.9c-5.09-10.73-15.4-15.96-25.1-15.96-15.51,0-28.22,11.75-27.81,27.53,.33,12.78,9.94,23.52,23.43,25.63l-.04-9.8c0-1.43,1.17-2.61,2.61-2.61h7.17c1.43,0,2.61,1.17,2.61,2.61v19.55c0,1.43-1.17,2.61-2.61,2.61-7.84,0-13.41,.02-20.85-2.82Zm43.79-38.08h7.17c1.43,0,2.61,1.17,2.61,2.61v35.69c0,1.43-1.17,2.61-2.61,2.61h-7.17c-1.43,0-2.61-1.17-2.61-2.61V60.04c0-1.43,1.17-2.61,2.61-2.61Zm-7.89,8.93h-7.17c-1.43,0-2.6,1.17-2.6,2.61v26.76c0,1.43,1.17,2.61,2.6,2.61h7.17c1.43,0,2.61-1.17,2.61-2.61v-26.76c0-1.43-1.17-2.61-2.61-2.61Z"/><polygon class="cls-1" points="119.86 73.13 119.86 87.22 144.81 87.22 144.81 98.33 107.9 98.33 107.9 38.52 143.96 38.52 143.96 49.63 119.86 49.63 119.86 62.02 143.11 62.02 143.11 73.13 119.86 73.13"/><path class="cls-1" d="M165.86,77.4l33.58-38.88h8.12v59.81h-11.96V59.54l-33.58,38.79h-8.12V38.52h11.96v38.88Zm15.81-43.41c-4.5,0-8.02-1.24-10.55-3.72-2.54-2.48-3.92-5.6-4.14-9.36h8.72c.23,1.88,.88,3.32,1.97,4.31,1.08,1,2.42,1.5,4.02,1.5s2.93-.5,4.02-1.5c1.08-1,1.74-2.44,1.97-4.31h8.72c-.23,3.76-1.61,6.88-4.14,9.36-2.53,2.48-6.05,3.72-10.55,3.72h0Z"/><path class="cls-1" d="M226.89,38.52h40.08v59.81h-11.96V49.63h-17l-2.22,27.6c-.63,7.69-2.48,13.23-5.55,16.62-3.08,3.39-7.49,5.08-13.24,5.08h-3.76v-11.54h1.79c2.85,0,4.96-.91,6.32-2.73,1.37-1.82,2.22-4.81,2.56-8.97l2.99-37.17h0Z"/></g><g><polygon class="cls-1" points="45.7 161.98 35.46 161.98 35.46 120.29 22.67 120.29 22.67 110.79 58.43 110.79 58.43 120.29 45.7 120.29 45.7 161.98"/><path class="cls-1" d="M80.75,110.79c3.95,0,7.36,.71,10.24,2.12,2.88,1.41,5.07,3.36,6.58,5.85,1.51,2.49,2.27,5.34,2.27,8.56s-.76,6.07-2.27,8.56c-1.51,2.49-3.71,4.44-6.58,5.85-2.88,1.41-6.29,2.12-10.24,2.12h-6.87v18.14h-10.24v-51.19h17.11Zm-.07,23.55c2.78,0,4.92-.66,6.44-1.97,1.51-1.32,2.27-3,2.27-5.05s-.76-3.73-2.27-5.05c-1.51-1.32-3.66-1.97-6.44-1.97h-6.8v14.04h6.8Z"/><polygon class="cls-1" points="116.02 140.41 116.02 152.47 137.37 152.47 137.37 161.98 105.78 161.98 105.78 110.79 136.64 110.79 136.64 120.29 116.02 120.29 116.02 130.9 135.91 130.9 135.91 140.41 116.02 140.41"/><polygon class="cls-1" points="165.47 135.43 187.34 161.98 174.39 161.98 155.38 138.5 155.38 161.98 145.14 161.98 145.14 110.79 155.38 110.79 155.38 133.39 173.51 110.79 185.65 110.79 165.47 135.43"/><polygon class="cls-1" points="201.69 140.41 201.69 152.47 223.04 152.47 223.04 161.98 191.45 161.98 191.45 110.79 222.31 110.79 222.31 120.29 201.69 120.29 201.69 130.9 221.58 130.9 221.58 140.41 201.69 140.41"/><path class="cls-1" d="M247.93,110.79c3.95,0,7.36,.71,10.24,2.12,2.88,1.41,5.07,3.36,6.58,5.85,1.51,2.49,2.27,5.34,2.27,8.56s-.76,6.07-2.27,8.56c-1.51,2.49-3.71,4.44-6.58,5.85-2.88,1.41-6.29,2.12-10.24,2.12h-6.87v18.14h-10.24v-51.19h17.11Zm-.07,23.55c2.78,0,4.92-.66,6.44-1.97,1.51-1.32,2.27-3,2.27-5.05s-.76-3.73-2.27-5.05c-1.51-1.32-3.66-1.97-6.44-1.97h-6.8v14.04h6.8Z"/></g></g></g></svg>