<?xml version="1.0" encoding="UTF-8"?><svg id="_лой_1" xmlns="http://www.w3.org/2000/svg" viewBox="0 0 325.16 194.37"><defs><style>.cls-1,.cls-2{fill:#fff;}.cls-2{fill-rule:evenodd;}</style></defs><g id="_лой_1-2"><g id="_2139885169520"><g><path class="cls-2" d="M47.02,109.01c-14.3-5.46-24.35-18.46-24.35-35.3,0-7.55,1.81-14.32,5.44-20.31,3.63-5.99,8.49-10.67,14.59-14.05,6.1-3.38,12.74-5.06,19.93-5.06,5.95,0,11.49,1.12,16.6,3.38,5.12,2.25,9.53,5.48,13.23,9.69,3.7,4.21,6.39,9.18,8.06,14.92h-12.9c-5.09-10.73-15.4-15.96-25.1-15.96-15.51,0-28.22,11.75-27.81,27.53,.33,12.78,9.94,23.52,23.43,25.63l-.04-9.8c0-1.43,1.17-2.61,2.61-2.61h7.17c1.43,0,2.61,1.17,2.61,2.61v19.55c0,1.43-1.17,2.61-2.61,2.61-7.84,0-13.41,.02-20.85-2.82Zm43.79-38.08h7.17c1.43,0,2.61,1.17,2.61,2.61v35.69c0,1.43-1.17,2.61-2.61,2.61h-7.17c-1.43,0-2.61-1.17-2.61-2.61v-35.69c0-1.43,1.17-2.61,2.61-2.61Zm-7.89,8.93h-7.17c-1.43,0-2.6,1.17-2.6,2.61v26.76c0,1.43,1.17,2.61,2.6,2.61h7.17c1.43,0,2.61-1.17,2.61-2.61v-26.76c0-1.43-1.17-2.61-2.61-2.61Z"/><polygon class="cls-1" points="119.86 86.61 119.86 100.71 144.81 100.71 144.81 111.82 107.9 111.82 107.9 52 143.96 52 143.96 63.11 119.86 63.11 119.86 75.5 143.11 75.5 143.11 86.61 119.86 86.61"/><path class="cls-1" d="M165.86,90.88l33.58-38.88h8.12v59.81h-11.96v-38.79l-33.58,38.79h-8.12V52h11.96v38.88Zm15.81-43.41c-4.5,0-8.02-1.24-10.55-3.72-2.54-2.48-3.92-5.6-4.14-9.36h8.72c.23,1.88,.88,3.32,1.97,4.31,1.08,1,2.42,1.5,4.02,1.5s2.93-.5,4.02-1.5c1.08-1,1.74-2.44,1.97-4.31h8.72c-.23,3.76-1.61,6.88-4.14,9.36-2.53,2.48-6.05,3.72-10.55,3.72h0Z"/><path class="cls-1" d="M226.89,52h40.08v59.81h-11.96V63.11h-17l-2.22,27.6c-.63,7.69-2.48,13.23-5.55,16.62-3.08,3.39-7.49,5.08-13.24,5.08h-3.76v-11.54h1.79c2.85,0,4.96-.91,6.32-2.73,1.37-1.82,2.22-4.81,2.56-8.97l2.99-37.17h0Z"/></g><g><polygon class="cls-1" points="45.7 175.46 35.46 175.46 35.46 133.78 22.67 133.78 22.67 124.27 58.43 124.27 58.43 133.78 45.7 133.78 45.7 175.46"/><path class="cls-1" d="M80.75,124.27c3.95,0,7.36,.71,10.24,2.12,2.88,1.41,5.07,3.36,6.58,5.85,1.51,2.49,2.27,5.34,2.27,8.56s-.76,6.07-2.27,8.56c-1.51,2.49-3.71,4.44-6.58,5.85-2.88,1.41-6.29,2.12-10.24,2.12h-6.87v18.14h-10.24v-51.19h17.11Zm-.07,23.55c2.78,0,4.92-.66,6.44-1.97,1.51-1.32,2.27-3,2.27-5.05s-.76-3.73-2.27-5.05c-1.51-1.32-3.66-1.97-6.44-1.97h-6.8v14.04h6.8Z"/><polygon class="cls-1" points="116.02 153.89 116.02 165.96 137.37 165.96 137.37 175.46 105.78 175.46 105.78 124.27 136.64 124.27 136.64 133.78 116.02 133.78 116.02 144.38 135.91 144.38 135.91 153.89 116.02 153.89"/><polygon class="cls-1" points="165.47 148.92 187.34 175.46 174.39 175.46 155.38 151.99 155.38 175.46 145.14 175.46 145.14 124.27 155.38 124.27 155.38 146.87 173.51 124.27 185.65 124.27 165.47 148.92"/><polygon class="cls-1" points="201.69 153.89 201.69 165.96 223.04 165.96 223.04 175.46 191.45 175.46 191.45 124.27 222.31 124.27 222.31 133.78 201.69 133.78 201.69 144.38 221.58 144.38 221.58 153.89 201.69 153.89"/><path class="cls-1" d="M247.93,124.27c3.95,0,7.36,.71,10.24,2.12,2.88,1.41,5.07,3.36,6.58,5.85,1.51,2.49,2.27,5.34,2.27,8.56s-.76,6.07-2.27,8.56c-1.51,2.49-3.71,4.44-6.58,5.85-2.88,1.41-6.29,2.12-10.24,2.12h-6.87v18.14h-10.24v-51.19h17.11Zm-.07,23.55c2.78,0,4.92-.66,6.44-1.97,1.51-1.32,2.27-3,2.27-5.05s-.76-3.73-2.27-5.05c-1.51-1.32-3.66-1.97-6.44-1.97h-6.8v14.04h6.8Z"/></g></g></g><g><path class="cls-1" d="M310.11,8.81h-32.31c-5.95,0-10.77,4.82-10.77,10.77v21.54c0,5.95,4.82,10.77,10.77,10.77h21.54c5.95,0,10.77-4.82,10.77-10.77V8.81Zm-1.41,1.41v30.9c0,5.16-4.2,9.36-9.36,9.36h-21.54c-5.16,0-9.36-4.2-9.36-9.36V19.58c0-5.16,4.2-9.36,9.36-9.36h30.9Z"/><path class="cls-1" d="M288.59,29.83c-2.86-2.28-9.07-.85-9.74-3.69-.35-1.49,1.19-2.81,3.17-2.81,1.79,0,3.59,.39,4.27,2.81h2.3v3.69Zm14.09-4.71h-5.17l-4.92,5.22v-10.43h-3.99v2.53c-.13-.16-.27-.32-.42-.48-1.45-1.49-3.54-2.24-6.22-2.24-3.09,0-4.85,1.34-5.78,2.47-1.16,1.4-1.67,3.3-1.31,4.85,.92,4.02,4.78,4.66,7.6,5.02,2.23,.28,4.37,.67,4.31,2.6-.06,2-2.39,2.49-3.92,2.49-3.98,0-4.12-2.85-4.12-2.85h-4.28c.06,1.07,.4,2.79,1.76,4.26,1.49,1.62,3.72,2.43,6.64,2.43,2.24,0,4.27-.71,5.74-1.96v1.72h3.99v-4.92l1.41-1.5,4.03,6.42h4.65l-5.87-9.4,5.87-6.23Z"/></g></svg>