<?xml version="1.0" encoding="UTF-8"?><svg id="_лой_1" xmlns="http://www.w3.org/2000/svg" viewBox="0 0 595.28 113.39"><defs><style>.cls-1,.cls-2{fill:#fff;}.cls-2{fill-rule:evenodd;}</style></defs><g id="_лой_1-2"><g id="_2139885169520"><path class="cls-2" d="M42.52,92.52c-14.3-5.46-24.35-18.46-24.35-35.3,0-7.55,1.81-14.32,5.44-20.31,3.63-5.99,8.49-10.67,14.59-14.05,6.1-3.38,12.74-5.06,19.93-5.06,5.95,0,11.49,1.12,16.6,3.38,5.12,2.25,9.53,5.48,13.23,9.69,3.7,4.21,6.39,9.18,8.06,14.92h-12.9c-5.09-10.73-15.4-15.96-25.1-15.96-15.51,0-28.22,11.75-27.81,27.53,.33,12.78,9.94,23.52,23.43,25.63l-.04-9.8c0-1.43,1.17-2.61,2.61-2.61h7.17c1.43,0,2.61,1.17,2.61,2.61v19.55c0,1.43-1.17,2.61-2.61,2.61-7.84,0-13.41,.02-20.85-2.82Zm43.79-38.08h7.17c1.43,0,2.61,1.17,2.61,2.61v35.69c0,1.43-1.17,2.61-2.61,2.61h-7.17c-1.43,0-2.61-1.17-2.61-2.61V57.04c0-1.43,1.17-2.61,2.61-2.61Zm-7.89,8.93h-7.17c-1.43,0-2.6,1.17-2.6,2.61v26.76c0,1.43,1.17,2.61,2.6,2.61h7.17c1.43,0,2.61-1.17,2.61-2.61v-26.76c0-1.43-1.17-2.61-2.61-2.61Z"/><polygon class="cls-1" points="115.36 70.13 115.36 84.22 140.31 84.22 140.31 95.33 103.4 95.33 103.4 35.52 139.46 35.52 139.46 46.63 115.36 46.63 115.36 59.02 138.61 59.02 138.61 70.13 115.36 70.13"/><path class="cls-1" d="M161.36,74.4l33.58-38.88h8.12v59.81h-11.96V56.54l-33.58,38.79h-8.12V35.52h11.96v38.88Zm15.81-43.41c-4.5,0-8.02-1.24-10.55-3.72-2.54-2.48-3.92-5.6-4.14-9.36h8.72c.23,1.88,.88,3.32,1.97,4.31,1.08,1,2.42,1.5,4.02,1.5s2.93-.5,4.02-1.5c1.08-1,1.74-2.44,1.97-4.31h8.72c-.23,3.76-1.61,6.88-4.14,9.36-2.53,2.48-6.05,3.72-10.55,3.72h0Z"/><path class="cls-1" d="M222.39,35.52h40.08v59.81h-11.96V46.63h-17l-2.22,27.6c-.63,7.69-2.48,13.23-5.55,16.62-3.08,3.39-7.49,5.08-13.24,5.08h-3.76v-11.54h1.79c2.85,0,4.96-.91,6.32-2.73,1.37-1.82,2.22-4.81,2.56-8.97l2.99-37.17h0Z"/><polygon class="cls-1" points="318.11 95.33 306.15 95.33 306.15 46.63 291.2 46.63 291.2 35.52 332.98 35.52 332.98 46.63 318.11 46.63 318.11 95.33"/><path class="cls-1" d="M359.07,35.52c4.61,0,8.6,.83,11.96,2.48,3.36,1.65,5.92,3.93,7.69,6.84,1.77,2.91,2.65,6.24,2.65,10s-.88,7.09-2.65,10c-1.77,2.91-4.33,5.18-7.69,6.84-3.36,1.65-7.35,2.48-11.96,2.48h-8.03v21.19h-11.96V35.52h19.99Zm-.09,27.51c3.25,0,5.75-.77,7.52-2.31,1.77-1.54,2.65-3.5,2.65-5.9s-.88-4.36-2.65-5.9c-1.77-1.54-4.27-2.31-7.52-2.31h-7.95v16.41h7.95Z"/><polygon class="cls-1" points="400.27 70.13 400.27 84.22 425.22 84.22 425.22 95.33 388.31 95.33 388.31 35.52 424.37 35.52 424.37 46.63 400.27 46.63 400.27 59.02 423.52 59.02 423.52 70.13 400.27 70.13"/><polygon class="cls-1" points="458.06 64.31 483.61 95.33 468.48 95.33 446.27 67.9 446.27 95.33 434.3 95.33 434.3 35.52 446.27 35.52 446.27 61.92 467.46 35.52 481.64 35.52 458.06 64.31"/><polygon class="cls-1" points="500.38 70.13 500.38 84.22 525.33 84.22 525.33 95.33 488.42 95.33 488.42 35.52 524.47 35.52 524.47 46.63 500.38 46.63 500.38 59.02 523.62 59.02 523.62 70.13 500.38 70.13"/><path class="cls-1" d="M554.4,35.52c4.61,0,8.6,.83,11.96,2.48,3.36,1.65,5.92,3.93,7.69,6.84,1.77,2.91,2.65,6.24,2.65,10s-.88,7.09-2.65,10c-1.77,2.91-4.33,5.18-7.69,6.84-3.36,1.65-7.35,2.48-11.96,2.48h-8.03v21.19h-11.96V35.52h19.99Zm-.09,27.51c3.25,0,5.75-.77,7.52-2.31,1.77-1.54,2.65-3.5,2.65-5.9s-.88-4.36-2.65-5.9c-1.77-1.54-4.27-2.31-7.52-2.31h-7.95v16.41h7.95Z"/></g></g></svg>