<svg width="30" height="14" viewBox="0 0 30 14" fill="none" xmlns="http://www.w3.org/2000/svg">
<g opacity="0.7">
<g clip-path="url(#clip0_115701_498)">
<path d="M10 7L9.295 6.295L6.5 9.085L6.5 3H5.5L5.5 9.085L2.71 6.29L2 7L6 11L10 7Z" fill="#9873FF"/>
</g>
</g>
<path d="M16.1787 8.13867L14.416 11H13.0879L15.1045 7.86035C14.8766 7.77897 14.6569 7.66178 14.4453 7.50879C14.237 7.35579 14.0661 7.14746 13.9326 6.88379C13.8024 6.61686 13.7373 6.2832 13.7373 5.88281C13.7373 5.22526 13.9652 4.72396 14.4209 4.37891C14.8799 4.03385 15.5423 3.86133 16.4082 3.86133H18.5518V11H17.3799V8.13867H16.1787ZM17.3799 4.83301H16.457C16.1283 4.83301 15.8499 4.87207 15.6221 4.9502C15.3942 5.02507 15.2217 5.14551 15.1045 5.31152C14.9873 5.47428 14.9287 5.68913 14.9287 5.95605C14.9287 6.34017 15.0557 6.63802 15.3096 6.84961C15.5635 7.0612 15.9508 7.16699 16.4717 7.16699H17.3799V4.83301ZM19.8457 8.80273V7.83105H22.3652V8.80273H19.8457ZM28.0781 11L27.3799 9.01758H24.6504L23.9521 11H22.7168L25.373 3.83203H26.6719L29.3232 11H28.0781ZM27.0771 8.01172L26.3984 6.05859C26.3724 5.97396 26.335 5.85514 26.2861 5.70215C26.2373 5.5459 26.1885 5.38802 26.1396 5.22852C26.0908 5.06576 26.0501 4.92904 26.0176 4.81836C25.985 4.95182 25.9443 5.10156 25.8955 5.26758C25.8499 5.43034 25.8044 5.58333 25.7588 5.72656C25.7165 5.86979 25.6839 5.98047 25.6611 6.05859L24.9775 8.01172H27.0771Z" fill="#9873FF"/>
<defs>
<clipPath id="clip0_115701_498">
<rect width="12" height="12" fill="white" transform="translate(0 1)"/>
</clipPath>
</defs>
</svg>
